<?xml version="1.0" standalone="no"?>
<!DOCTYPE svg PUBLIC "-//W3C//DTD SVG 20010904//EN"
 "http://www.w3.org/TR/2001/REC-SVG-20010904/DTD/svg10.dtd">
<svg version="1.0" xmlns="http://www.w3.org/2000/svg"
 width="16.000000pt" height="16.000000pt" viewBox="0 0 16.000000 16.000000"
 preserveAspectRatio="xMidYMid meet">
<metadata>
Created by potrace 1.11, written by Peter Selinger 2001-2013
</metadata>
<g transform="translate(0.000000,16.000000) scale(0.006154,-0.006154)"
fill="#000000" stroke="none">
<path d="M1309 2599 c-4 -13 -4 -269 1 -270 3 0 32 -2 65 -5 33 -3 102 -16
153 -29 344 -90 606 -384 657 -735 8 -51 8 -210 1 -255 -38 -238 -161 -444
-350 -585 -107 -79 -260 -148 -372 -166 -104 -16 -259 -12 -363 10 -153 33
-330 136 -446 259 -249 263 -313 659 -160 984 l34 73 -97 56 c-53 31 -107 63
-119 70 -21 13 -24 11 -49 -32 -40 -68 -83 -186 -105 -288 -96 -436 65 -892
411 -1169 50 -40 80 -72 89 -96 37 -95 128 -212 215 -278 126 -95 266 -142
424 -141 266 0 498 144 618 383 27 55 47 79 92 113 400 299 566 834 407 1307
-94 280 -310 532 -574 669 -72 37 -247 99 -311 111 -45 8 -220 19 -221 14z
m-282 -2305 c99 -23 116 -25 248 -28 170 -5 305 17 453 74 l54 21 -21 -30
c-38 -53 -131 -129 -205 -165 -181 -90 -404 -80 -568 26 -59 38 -178 151 -178
168 0 4 34 -5 75 -21 41 -16 105 -36 142 -45z"/>
<path d="M1170 1974 c-262 -68 -435 -301 -424 -568 7 -140 61 -262 162 -365
108 -110 239 -165 393 -164 299 1 536 221 556 514 7 103 -13 205 -56 291 -34
66 -89 138 -107 138 -7 0 -97 -86 -201 -191 l-190 -192 -1 259 c0 143 -1 267
-1 277 -1 21 -51 22 -131 1z"/>
</g>
</svg>
