<?xml version="1.0" encoding="utf-8"?>
<!-- Generator: Adobe Illustrator 18.0.0, SVG Export Plug-In . SVG Version: 6.00 Build 0)  -->
<!DOCTYPE svg PUBLIC "-//W3C//DTD SVG 1.1//EN" "http://www.w3.org/Graphics/SVG/1.1/DTD/svg11.dtd">
<svg version="1.1" id="Capa_1" xmlns="http://www.w3.org/2000/svg" xmlns:xlink="http://www.w3.org/1999/xlink" x="0px" y="0px"
	 viewBox="0 0 400 158" enable-background="new 0 0 400 158" xml:space="preserve">
<g>
	<g>
		<path fill="#FF0000" d="M378.9,104c0-0.5,0.1-1,0.3-1.4c0.2-0.4,0.5-0.8,0.8-1.1c0.3-0.3,0.7-0.6,1.2-0.8c0.4-0.2,0.9-0.3,1.4-0.3
			c0.5,0,1,0.1,1.4,0.3c0.4,0.2,0.8,0.4,1.2,0.8c0.3,0.3,0.6,0.7,0.8,1.1c0.2,0.4,0.3,0.9,0.3,1.4c0,0.5-0.1,1-0.3,1.5
			c-0.2,0.4-0.5,0.8-0.8,1.1c-0.3,0.3-0.7,0.6-1.2,0.8c-0.4,0.2-0.9,0.3-1.4,0.3c-0.5,0-1-0.1-1.4-0.3c-0.4-0.2-0.8-0.4-1.2-0.8
			c-0.3-0.3-0.6-0.7-0.8-1.1C379,105,378.9,104.5,378.9,104z M385.6,104c0-0.4-0.1-0.8-0.2-1.2c-0.2-0.4-0.4-0.7-0.6-1
			c-0.3-0.3-0.6-0.5-0.9-0.6c-0.4-0.2-0.7-0.2-1.2-0.2c-0.4,0-0.8,0.1-1.2,0.2c-0.4,0.2-0.7,0.4-0.9,0.6c-0.3,0.3-0.5,0.6-0.6,1
			c-0.2,0.4-0.2,0.8-0.2,1.2c0,0.4,0.1,0.9,0.2,1.2c0.2,0.4,0.4,0.7,0.6,1c0.3,0.3,0.6,0.5,0.9,0.6c0.4,0.2,0.8,0.2,1.2,0.2
			c0.4,0,0.8-0.1,1.2-0.2c0.4-0.2,0.7-0.4,0.9-0.6c0.3-0.3,0.5-0.6,0.6-1C385.5,104.9,385.6,104.5,385.6,104z M381.8,106.1h-0.6
			v-4.2h1.6c0.5,0,0.9,0.1,1.1,0.3c0.2,0.2,0.4,0.5,0.4,0.9c0,0.4-0.1,0.7-0.3,0.8c-0.2,0.2-0.5,0.3-0.8,0.3l1.2,1.8h-0.7l-1.1-1.8
			h-0.7V106.1z M381.8,103.8h0.8c0.4,0,0.7-0.1,0.8-0.2c0.1-0.1,0.2-0.3,0.2-0.5c0-0.2-0.1-0.4-0.2-0.5c-0.1-0.1-0.4-0.2-0.7-0.2
			h-0.9V103.8z"/>
	</g>
	<path d="M23.9,51.2h12l19.1,45.1H41.6l-3.3-8H21.1l-3.2,8H4.8L23.9,51.2z M34.8,78.7l-5-12.7l-5.1,12.7H34.8z"/>
	<path d="M60.6,51.6h11.6l18.4,23.7V51.6h12.3v44.8H92L72.8,71.8v24.6H60.6V51.6z"/>
	<path d="M112.3,51.6h12.5v44.8h-12.5V51.6z"/>
	<path d="M134.3,51.6h13.1l10.7,17.3l10.7-17.3h13.1v44.8h-12.4V70.6l-11.5,17.5h-0.3l-11.4-17.4v25.6h-12.2V51.6z"/>
	<path d="M206.6,51.2h12l19.1,45.1h-13.3l-3.3-8h-17.3l-3.2,8h-13.1L206.6,51.2z M217.5,78.7l-5-12.7l-5.1,12.7H217.5z"/>
	<path d="M243.3,51.6h12.4v33.9h21.7v10.9h-34.1V51.6z"/>
	<path d="M60.3,100.5h19.2c11.3,0,18.6,5.8,18.6,15.7v0.1c0,10.6-8.1,16.1-19.3,16.1h-6.1v12.8H60.3V100.5z M78.6,122.8
		c4.4,0,7.1-2.3,7.1-5.8v-0.1c0-3.8-2.7-5.9-7.2-5.9h-5.8v11.8H78.6z"/>
	<path d="M103.1,123v-0.1c0-12.9,10.4-23.3,24.2-23.3c13.8,0,24.1,10.3,24.1,23.2v0.1c0,12.9-10.4,23.3-24.2,23.3
		C113.3,146.2,103.1,135.9,103.1,123z M138.7,123v-0.1c0-6.5-4.7-12.1-11.5-12.1c-6.8,0-11.3,5.5-11.3,12v0.1
		c0,6.5,4.7,12.1,11.5,12.1C134.1,135,138.7,129.5,138.7,123z"/>
	<path d="M157.1,100.5h12.4v33.9h21.7v10.9h-34.1V100.5z"/>
	<path d="M198.1,100.5h12.5v44.8h-12.5V100.5z"/>
	<path d="M231,111.4h-13.4v-10.9h39.3v10.9h-13.4v33.9H231V111.4z"/>
	<path d="M263.8,100.5h12.5v44.8h-12.5V100.5z"/>
	<path d="M284.2,123v-0.1c0-13.1,10-23.3,23.6-23.3c9.1,0,15,3.8,19,9.3l-9.3,7.2c-2.6-3.2-5.5-5.3-9.8-5.3
		c-6.3,0-10.7,5.3-10.7,11.8v0.1c0,6.7,4.4,12,10.7,12c4.7,0,7.4-2.2,10.1-5.4l9.3,6.7c-4.2,5.8-9.9,10.1-19.8,10.1
		C294.5,146.2,284.2,136.4,284.2,123z"/>
	<g>
		<path fill="#FF0000" d="M382.2,22.8c-3.4-3.5-20-13.2-26.3-13.2c-6.4,0.1-14.7,5.3-19.9,7.6c-5.2,2.3-6,2.2-6,2.2
			c-2.6,0.7-1.6,1-3.8,3c-2.1,2-3.9,2.8-9.1,4.4c-5.2,1.6-9.4,2.2-10.7,3.3c-1.3,1.1-0.5,1.5-1.1,2.6c-0.6,1.1-0.9,0.5-1.6,1.8
			c-0.7,1.3,0.1,5.2-0.4,7.7c-0.6,2.4-1.4,1.2-1.7,3.5c-0.4,2.3,2.4,4.9,2.7,8.1c0.4,3.2-0.4,5.2-0.4,8.9c0,3.7,2.7,13.8,1.7,20.7
			c-1,7-7.2,2.8-9.8,1.5c-2.6-1.2-7.6,0.4-7.6,0.4l0.3,2.6c0,0,0.9-0.6,4.5-0.9c3.7-0.3,7.4,4.4,12.7,3.1c3.8-1,6.4-7,6.6-11.5
			c0.1-3.7,0.6-13.4,0.7-13.9c0-0.6,1.1-0.6,1.1-0.6s0.8,2.5,1.4,1.9c0.7-0.5,1.6-4.3,2.1-4.9c0.5-0.6,4.4-2.7,6.5-4.6
			c2.1-1.9,2.4-3.5,3.5-3.5c1.1-0.1,5.3,3.1,6.8,3.5c1.5,0.4,2.2,0.1,2.5,0.6c0.4,0.6,7.5,25.4,7.5,25.9c0.1,0.5,2.5,4.5,3.2,5.8
			c0.6,1.2-2.6,10.1-2.9,13.4c-7.6,3.9-12.6,11.7-12.6,20.6v0.1c0,12.9,10.2,23.2,24.1,23.2c13.8,0,24.2-10.4,24.2-23.3v-0.1
			c0-8.2-4.2-15.4-10.9-19.5c1.4-0.8,0.6-1.7-1.4-2.9c-2-1.3-1.3-11.1-0.2-13.5c1.1-2.4,7.5-22.5,9.4-23.6c1.9-1.1,2.5-2.5,5.6-4.5
			c3.1-2,5-5.3,5.1-4.5c0.2,0.8-1.4,10-1,14.2c0.4,4.2,4.7,15.5,4.7,15.5s-2.3-11.4-2.8-16c-0.5-4.6,1.7-10.1,4.5-20.3
			C396.4,37.4,385.7,26.3,382.2,22.8z M367.8,122.9v0.1c0,6.5-4.5,12-11.4,12c-6.8,0-11.5-5.6-11.5-12.1v-0.1c0-6.5,4.5-12,11.3-12
			C363.1,110.8,367.8,116.4,367.8,122.9z"/>
	</g>
</g>
</svg>
