<svg xmlns="http://www.w3.org/2000/svg" viewBox="0 0 207.798 37.875">
  <defs>
    <style>
      .cls-1 {
        fill: #505050;
      }
    </style>
  </defs>
  <title>Recurso 10</title>
  <g id="Capa_2" data-name="Capa 2">
    <g id="Capa_1-2" data-name="Capa 1">
      <g>
        <g>
          <path class="cls-1" d="M52.8218,12.1476a6.6638,6.6638,0,0,1,4.6872,1.7837.3635.3635,0,0,1,.026.5338L56.35,15.676a.3238.3238,0,0,1-.4817,0A4.4925,4.4925,0,0,0,52.9,14.5433a4.4822,4.4822,0,0,0,.026,8.9577,4.4636,4.4636,0,0,0,2.9425-1.1067.3455.3455,0,0,1,.4817,0l1.2109,1.2369a.3863.3863,0,0,1-.026.5338,6.6054,6.6054,0,0,1-4.6872,1.8879,6.9527,6.9527,0,1,1-.026-13.9053Z"/>
          <path class="cls-1" d="M65.9589,12.1476a6.9527,6.9527,0,1,1-6.9266,6.9787A6.94,6.94,0,0,1,65.9589,12.1476Zm0,11.3924a4.44,4.44,0,0,0,4.44-4.4138,4.4269,4.4269,0,1,0-8.8535,0A4.4175,4.4175,0,0,0,65.9589,23.54Z"/>
          <path class="cls-1" d="M75.45,12.6944a.3558.3558,0,0,1,.3646-.3646h1.7837a.3726.3726,0,0,1,.3646.3646V23.54h4.9215a.3558.3558,0,0,1,.3646.3646V25.493a.3558.3558,0,0,1-.3646.3646h-7.07a.3558.3558,0,0,1-.3646-.3646Z"/>
          <path class="cls-1" d="M84.0566,25.35l6.0152-12.9939a.3394.3394,0,0,1,.3385-.2213h.1953a.3468.3468,0,0,1,.3385.2213L96.8813,25.35a.3511.3511,0,0,1-.3385.5078H94.85a.5537.5537,0,0,1-.56-.3906l-.9374-2.0832H87.585l-.9374,2.0832a.58.58,0,0,1-.56.3906H84.3952A.3461.3461,0,0,1,84.0566,25.35Zm8.3458-4.1013L90.4755,17.004h-.0521l-1.8879,4.2445Z"/>
          <path class="cls-1" d="M98.639,12.6944a.3558.3558,0,0,1,.3646-.3646h4.4138a3.7919,3.7919,0,0,1,4.0752,3.58,3.6473,3.6473,0,0,1-2.1222,3.0727,3.5012,3.5012,0,0,1,2.5128,3.1378c0,2.1743-1.8618,3.7237-4.2054,3.7237H98.99a.3558.3558,0,0,1-.3646-.3646V12.6944Zm4.544,5.3251a1.6565,1.6565,0,0,0,1.6665-1.7447,1.579,1.579,0,0,0-1.6665-1.6405H101.1V18.02Zm.2864,5.5725a1.7313,1.7313,0,0,0,1.7447-1.7577,1.8826,1.8826,0,0,0-1.979-1.6926h-2.0962v3.4242h2.3436v.026Z"/>
          <path class="cls-1" d="M116.5153,12.1476a6.9527,6.9527,0,1,1-6.9266,6.9787A6.94,6.94,0,0,1,116.5153,12.1476Zm0,11.3924a4.44,4.44,0,0,0,4.44-4.4138,4.4269,4.4269,0,1,0-8.8535,0A4.4175,4.4175,0,0,0,116.5153,23.54Z"/>
          <path class="cls-1" d="M126.0068,12.6944a.3558.3558,0,0,1,.3646-.3646h5.5335a4.1844,4.1844,0,0,1,4.2054,4.1534,4.2614,4.2614,0,0,1-2.8514,3.906l2.6561,4.9085a.3652.3652,0,0,1-.3385.56h-2.0311a.3558.3558,0,0,1-.3125-.1693l-2.5649-5.1168H128.52V25.493a.3726.3726,0,0,1-.3646.3646h-1.7837a.3558.3558,0,0,1-.3646-.3646V12.6944Zm5.6637,5.8069a1.983,1.983,0,0,0,1.9139-1.979,1.9467,1.9467,0,0,0-1.9139-1.8879h-3.1378v3.8669Z"/>
          <path class="cls-1" d="M137.1128,25.35l6.0152-12.9939a.3394.3394,0,0,1,.3385-.2213h.1953a.3468.3468,0,0,1,.3385.2213L149.9375,25.35a.3511.3511,0,0,1-.3385.5078h-1.6926a.5537.5537,0,0,1-.56-.3906l-.9374-2.0832h-5.7678l-.9374,2.0832a.58.58,0,0,1-.56.3906h-1.6926A.3461.3461,0,0,1,137.1128,25.35Zm8.3588-4.1013-1.927-4.2445h-.0521l-1.8879,4.2445Z"/>
          <path class="cls-1" d="M152.7888,14.66h-2.9425a.3558.3558,0,0,1-.3646-.3646V12.7075a.3558.3558,0,0,1,.3646-.3646h8.45a.3558.3558,0,0,1,.3646.3646v1.5884a.3558.3558,0,0,1-.3646.3646h-2.9425V25.506a.3726.3726,0,0,1-.3646.3646h-1.7837a.3726.3726,0,0,1-.3646-.3646V14.66Z"/>
          <path class="cls-1" d="M166.4728,12.1476a6.9527,6.9527,0,1,1-6.9266,6.9787A6.94,6.94,0,0,1,166.4728,12.1476Zm0,11.3924a4.44,4.44,0,0,0,4.44-4.4138,4.4269,4.4269,0,1,0-8.8535,0A4.4175,4.4175,0,0,0,166.4728,23.54Z"/>
          <path class="cls-1" d="M175.9643,12.6944a.3558.3558,0,0,1,.3646-.3646h5.5335a4.1844,4.1844,0,0,1,4.2054,4.1534,4.2614,4.2614,0,0,1-2.8514,3.906l2.6561,4.9085a.3652.3652,0,0,1-.3385.56h-2.0311a.3558.3558,0,0,1-.3125-.1693l-2.5649-5.1168h-2.1483V25.493a.3726.3726,0,0,1-.3646.3646h-1.7837a.3558.3558,0,0,1-.3646-.3646V12.6944Zm5.6767,5.8069a1.9829,1.9829,0,0,0,1.9139-1.979,1.9467,1.9467,0,0,0-1.9139-1.8879h-3.1378v3.8669Z"/>
          <path class="cls-1" d="M188.841,12.6944a.3726.3726,0,0,1,.3646-.3646h1.7837a.3726.3726,0,0,1,.3646.3646V25.493a.3726.3726,0,0,1-.3646.3646h-1.7837a.3726.3726,0,0,1-.3646-.3646Z"/>
          <path class="cls-1" d="M200.8454,12.1476a6.9527,6.9527,0,1,1-6.9266,6.9787A6.94,6.94,0,0,1,200.8454,12.1476Zm0,11.3924a4.44,4.44,0,0,0,4.44-4.4138,4.4269,4.4269,0,1,0-8.8535,0A4.4175,4.4175,0,0,0,200.8454,23.54Z"/>
        </g>
        <g>
          <polygon class="cls-1" points="0.521 9.244 16.509 0 32.485 9.244 27.863 11.913 16.509 5.364 5.156 11.952 0.521 9.244"/>
          <polygon class="cls-1" points="0 28.631 0 10.156 4.635 12.851 4.635 25.975 15.988 32.537 15.988 37.875 0 28.631"/>
          <polygon class="cls-1" points="17.03 19.999 26.821 25.649 17.03 31.326 17.03 19.999"/>
          <polygon class="cls-1" points="5.677 12.851 16.509 6.575 27.342 12.812 27.342 24.738 16.509 18.501 5.677 24.764 5.677 12.851"/>
          <polygon class="cls-1" points="6.197 25.675 15.988 19.999 15.988 31.326 6.197 25.675"/>
          <polygon class="cls-1" points="17.03 32.537 28.383 25.949 28.383 12.812 33.006 10.143 33.006 28.631 17.03 37.849 17.03 32.537"/>
        </g>
      </g>
    </g>
  </g>
</svg>
