<?xml version="1.0" encoding="utf-8"?>
<!-- Generator: Adobe Illustrator 18.0.0, SVG Export Plug-In . SVG Version: 6.00 Build 0)  -->
<!DOCTYPE svg PUBLIC "-//W3C//DTD SVG 1.1//EN" "http://www.w3.org/Graphics/SVG/1.1/DTD/svg11.dtd">
<svg version="1.1" id="Poder" xmlns="http://www.w3.org/2000/svg" xmlns:xlink="http://www.w3.org/1999/xlink" x="0px" y="0px"
	 viewBox="0 993 1601 313.6" enable-background="new 0 993 1601 313.6" xml:space="preserve">
<g>
	<g>
		<path fill="#FFFFFF" d="M410.7,1097.6c15,0,25.8,4.8,36,13.7c1.3,1.1,1.3,3,0.2,4.1l-9.1,9.3c-1.1,1.1-2.6,1.1-3.7,0
			c-6.3-5.6-14.5-8.7-22.8-8.7c-18.9,0-33,16-33,34.5c0,18.5,14.3,34.3,33.2,34.3c8.9,0,16.5-3.3,22.6-8.5c1.1-1.1,2.8-0.9,3.7,0
			l9.3,9.5c1.1,1.1,0.9,3-0.2,4.1c-10,9.8-22.8,14.5-36,14.5c-29.7,0-53.6-23.6-53.6-53.2C357.1,1121.5,381.1,1097.6,410.7,1097.6z"
			/>
		<path fill="#FFFFFF" d="M511.6,1097.6c29.7,0,53.4,23.9,53.4,53.6s-23.7,53.2-53.4,53.2c-29.7,0-53.2-23.6-53.2-53.2
			C458.4,1121.5,482,1097.6,511.6,1097.6z M511.6,1185.1c18.7,0,34.1-15.2,34.1-33.9c0-18.7-15.4-34.3-34.1-34.3
			c-18.7,0-33.9,15.6-33.9,34.3C477.7,1169.9,492.9,1185.1,511.6,1185.1z"/>
		<path fill="#FFFFFF" d="M584.5,1101.8c0-1.5,1.1-2.8,2.8-2.8H601c1.5,0,2.8,1.3,2.8,2.8v83.3h37.8c1.7,0,2.8,1.3,2.8,2.8v12.2
			c0,1.5-1.1,2.8-2.8,2.8h-54.3c-1.7,0-2.8-1.3-2.8-2.8V1101.8z"/>
		<path fill="#FFFFFF" d="M650.6,1199l46.2-99.8c0.4-0.9,1.1-1.7,2.6-1.7h1.5c1.5,0,2,0.7,2.6,1.7l45.6,99.8
			c0.9,1.9-0.4,3.9-2.6,3.9h-13c-2.2,0-3.3-0.9-4.3-3l-7.2-16h-44.3l-7.2,16c-0.6,1.5-1.9,3-4.3,3h-13
			C650.9,1202.9,649.8,1201.1,650.6,1199z M714.7,1167.5l-14.8-32.6h-0.4l-14.5,32.6H714.7z"/>
		<path fill="#FFFFFF" d="M762.6,1101.8c0-1.5,1.1-2.8,2.8-2.8h33.9c17.6,0,31.3,11.9,31.3,27.5c0,11.5-9.3,20.4-16.3,23.6
			c7.8,2.6,19.3,10.6,19.3,24.1c0,16.7-14.3,28.6-32.3,28.6h-36c-1.7,0-2.8-1.3-2.8-2.8V1101.8z M797.5,1142.7
			c7.6,0,12.8-5.9,12.8-13.4c0-7.4-5.2-12.6-12.8-12.6h-16v26H797.5z M799.7,1185.5c7.4,0,13.4-5.8,13.4-13.5c0-7.4-7.4-13-15.2-13
			h-16.1v26.3h18V1185.5z"/>
		<path fill="#FFFFFF" d="M899.9,1097.6c29.7,0,53.4,23.9,53.4,53.6s-23.7,53.2-53.4,53.2c-29.7,0-53.2-23.6-53.2-53.2
			C846.6,1121.5,870.2,1097.6,899.9,1097.6z M899.9,1185.1c18.7,0,34.1-15.2,34.1-33.9c0-18.7-15.4-34.3-34.1-34.3
			s-33.9,15.6-33.9,34.3C865.9,1169.9,881.3,1185.1,899.9,1185.1z"/>
		<path fill="#FFFFFF" d="M972.8,1101.8c0-1.5,1.1-2.8,2.8-2.8h42.5c17.8,0,32.3,14.3,32.3,31.9c0,13.7-9.1,24.9-21.9,30l20.4,37.7
			c1.1,1.9,0,4.3-2.6,4.3h-15.6c-1.3,0-2-0.7-2.4-1.3l-19.7-39.3h-16.5v37.8c0,1.5-1.3,2.8-2.8,2.8h-13.7c-1.7,0-2.8-1.3-2.8-2.8
			V1101.8z M1016.3,1146.4c7.8,0,14.7-6.9,14.7-15.2c0-7.8-6.9-14.5-14.7-14.5h-24.1v29.7H1016.3z"/>
		<path fill="#FFFFFF" d="M1058.1,1199l46.2-99.8c0.4-0.9,1.1-1.7,2.6-1.7h1.5c1.5,0,2,0.7,2.6,1.7l45.6,99.8
			c0.9,1.9-0.4,3.9-2.6,3.9h-13c-2.2,0-3.3-0.9-4.3-3l-7.2-16h-44.3l-7.2,16c-0.6,1.5-1.9,3-4.3,3h-13
			C1058.5,1202.9,1057.2,1201.1,1058.1,1199z M1122.3,1167.5l-14.8-32.6h-0.4l-14.5,32.6H1122.3z"/>
		<path fill="#FFFFFF" d="M1178.5,1116.9h-22.6c-1.7,0-2.8-1.3-2.8-2.8v-12.2c0-1.5,1.1-2.8,2.8-2.8h64.9c1.7,0,2.8,1.3,2.8,2.8
			v12.2c0,1.5-1.1,2.8-2.8,2.8h-22.6v83.3c0,1.5-1.3,2.8-2.8,2.8h-13.7c-1.5,0-2.8-1.3-2.8-2.8v-83.3H1178.5z"/>
		<path fill="#FFFFFF" d="M1283.6,1097.6c29.7,0,53.4,23.9,53.4,53.6s-23.7,53.2-53.4,53.2s-53.2-23.6-53.2-53.2
			S1254,1097.6,1283.6,1097.6z M1283.6,1185.1c18.7,0,34.1-15.2,34.1-33.9c0-18.7-15.4-34.3-34.1-34.3s-33.9,15.6-33.9,34.3
			C1249.7,1169.9,1264.9,1185.1,1283.6,1185.1z"/>
		<path fill="#FFFFFF" d="M1356.5,1101.8c0-1.5,1.1-2.8,2.8-2.8h42.5c17.8,0,32.3,14.3,32.3,31.9c0,13.7-9.1,24.9-21.9,30l20.4,37.7
			c1.1,1.9,0,4.3-2.6,4.3h-15.6c-1.3,0-2-0.7-2.4-1.3l-19.7-39.3h-16.5v37.8c0,1.5-1.3,2.8-2.8,2.8h-13.7c-1.7,0-2.8-1.3-2.8-2.8
			V1101.8z M1400.1,1146.4c7.8,0,14.7-6.9,14.7-15.2c0-7.8-6.9-14.5-14.7-14.5H1376v29.7H1400.1z"/>
		<path fill="#FFFFFF" d="M1455.4,1101.8c0-1.5,1.3-2.8,2.8-2.8h13.7c1.5,0,2.8,1.3,2.8,2.8v98.3c0,1.5-1.3,2.8-2.8,2.8h-13.7
			c-1.5,0-2.8-1.3-2.8-2.8V1101.8z"/>
		<path fill="#FFFFFF" d="M1547.6,1097.6c29.7,0,53.4,23.9,53.4,53.6s-23.7,53.2-53.4,53.2s-53.2-23.6-53.2-53.2
			S1517.9,1097.6,1547.6,1097.6z M1547.6,1185.1c18.7,0,34.1-15.2,34.1-33.9c0-18.7-15.4-34.3-34.1-34.3s-33.9,15.6-33.9,34.3
			C1513.6,1169.9,1529,1185.1,1547.6,1185.1z"/>
	</g>
	<g>
		<polygon fill="#FFFFFF" points="9,1075.3 131.8,1004.3 254.5,1075.3 219,1095.8 131.8,1045.5 44.6,1096.1 		"/>
		<polygon fill="#FFFFFF" points="5,1224.2 5,1082.3 40.6,1103 40.6,1203.8 127.8,1254.2 127.8,1295.2 		"/>
		<polygon fill="#FFFFFF" points="135.8,1157.9 211,1201.3 135.8,1244.9 		"/>
		<polygon fill="#FFFFFF" points="48.6,1103 131.8,1054.8 215,1102.7 215,1194.3 131.8,1146.4 48.6,1194.5 		"/>
		<polygon fill="#FFFFFF" points="52.6,1201.5 127.8,1157.9 127.8,1244.9 		"/>
		<polygon fill="#FFFFFF" points="135.8,1254.2 223,1203.6 223,1102.7 258.5,1082.2 258.5,1224.2 135.8,1295 		"/>
	</g>
</g>
</svg>
