<?xml version="1.0" encoding="utf-8"?>
<!-- Generator: Adobe Illustrator 16.0.0, SVG Export Plug-In . SVG Version: 6.00 Build 0)  -->
<!DOCTYPE svg PUBLIC "-//W3C//DTD SVG 1.1//EN" "http://www.w3.org/Graphics/SVG/1.1/DTD/svg11.dtd">
<svg version="1.1" id="Layer_1" xmlns="http://www.w3.org/2000/svg" xmlns:xlink="http://www.w3.org/1999/xlink" x="0px" y="0px"
	 width="118.905px" height="27.291px" viewBox="0 0 118.905 27.291" enable-background="new 0 0 118.905 27.291"
	 xml:space="preserve">
<g>
	<g>
		<path fill="#FFFFFF" d="M23.354,7.903h2.902l2.193,6.448h0.025l2.075-6.448h2.902v9.377h-1.931v-6.646h-0.025l-2.299,6.646h-1.59
			L25.31,10.7h-0.026v6.58h-1.93V7.903z"/>
		<path fill="#FFFFFF" d="M35.265,7.903h7.013v1.733h-4.951v2.01h4.545v1.602h-4.545v2.299h5.057v1.733h-7.118V7.903z M38.929,7.062
			h-1.3l1.26-1.864h2.062L38.929,7.062z"/>
		<path fill="#FFFFFF" d="M46.074,12.368l-3.021-4.465h2.391l1.838,2.994l1.904-2.994h2.259l-3.007,4.479l3.27,4.898h-2.455
			l-2.049-3.244l-2.089,3.244h-2.324L46.074,12.368z"/>
		<path fill="#FFFFFF" d="M52.535,7.903h2.062v9.377h-2.062V7.903z"/>
		<path fill="#FFFFFF" d="M62.661,11.056c-0.062-0.465-0.289-0.854-0.684-1.169c-0.395-0.315-0.85-0.473-1.365-0.473
			c-0.447,0-0.834,0.087-1.162,0.262c-0.328,0.176-0.594,0.412-0.795,0.71s-0.35,0.639-0.447,1.024
			c-0.096,0.385-0.145,0.792-0.145,1.221c0,0.412,0.049,0.804,0.145,1.176c0.098,0.372,0.248,0.707,0.453,1.005
			c0.207,0.298,0.471,0.531,0.795,0.702s0.709,0.256,1.156,0.256c0.613,0,1.1-0.19,1.465-0.571c0.363-0.381,0.584-0.891,0.662-1.529
			h1.996c-0.053,0.577-0.188,1.103-0.406,1.576c-0.219,0.473-0.51,0.877-0.873,1.214c-0.365,0.338-0.787,0.596-1.268,0.775
			c-0.482,0.18-1.008,0.27-1.576,0.27c-0.709,0-1.352-0.125-1.924-0.375c-0.574-0.249-1.061-0.595-1.458-1.037
			c-0.398-0.442-0.702-0.961-0.913-1.557c-0.21-0.595-0.314-1.229-0.314-1.904c0-0.691,0.104-1.339,0.314-1.943
			c0.211-0.604,0.515-1.132,0.913-1.583c0.398-0.45,0.884-0.801,1.458-1.05c0.572-0.25,1.215-0.375,1.924-0.375
			c0.516,0,1.006,0.075,1.471,0.224c0.463,0.149,0.877,0.368,1.24,0.656c0.363,0.289,0.662,0.644,0.895,1.064
			c0.23,0.42,0.377,0.897,0.439,1.432H62.661z"/>
		<path fill="#FFFFFF" d="M66.05,10.688c0.209-0.604,0.514-1.132,0.912-1.583c0.398-0.45,0.885-0.801,1.457-1.05
			c0.574-0.25,1.215-0.375,1.924-0.375s1.352,0.125,1.924,0.375c0.574,0.249,1.062,0.6,1.465,1.05
			c0.402,0.451,0.707,0.979,0.912,1.583c0.207,0.604,0.309,1.252,0.309,1.943c0,0.675-0.102,1.307-0.309,1.898
			c-0.205,0.591-0.51,1.109-0.912,1.556s-0.891,0.795-1.465,1.044c-0.572,0.25-1.215,0.375-1.924,0.375s-1.35-0.125-1.924-0.375
			c-0.572-0.249-1.059-0.595-1.457-1.037s-0.703-0.961-0.912-1.557c-0.211-0.595-0.316-1.229-0.316-1.904
			C65.733,11.939,65.839,11.292,66.05,10.688z M67.94,13.807c0.096,0.372,0.246,0.707,0.453,1.005
			c0.205,0.298,0.471,0.531,0.795,0.702c0.322,0.171,0.709,0.256,1.154,0.256c0.447,0,0.834-0.087,1.162-0.263
			c0.328-0.175,0.594-0.409,0.795-0.702s0.35-0.626,0.447-0.998c0.096-0.372,0.145-0.764,0.145-1.176
			c0-0.429-0.049-0.836-0.145-1.221c-0.098-0.386-0.246-0.727-0.447-1.024s-0.467-0.534-0.795-0.71
			c-0.328-0.175-0.715-0.262-1.162-0.262c-0.445,0-0.834,0.087-1.162,0.262c-0.328,0.176-0.594,0.412-0.795,0.71
			s-0.35,0.639-0.445,1.024c-0.098,0.385-0.145,0.792-0.145,1.221C67.796,13.043,67.843,13.435,67.94,13.807z"/>
		<path fill="#FFFFFF" d="M76.358,7.903h2.062v7.644h4.57v1.733h-6.633V7.903z"/>
		<path fill="#FFFFFF" d="M84.146,7.903h7.014v1.733h-4.951v2.01h4.543v1.602h-4.543v2.299h5.057v1.733h-7.119V7.903z"/>
		<path fill="#FFFFFF" d="M95.218,7.903h2.113l3.506,9.377h-2.141l-0.709-2.088h-3.506l-0.736,2.088h-2.088L95.218,7.903z
			 M95.021,13.655h2.43l-1.184-3.44h-0.025L95.021,13.655z"/>
		<path fill="#FFFFFF" d="M101.651,7.903h2.062v3.888l3.664-3.888h2.574l-3.664,3.703l4.02,5.674h-2.588l-2.824-4.216l-1.182,1.195
			v3.021h-2.062V7.903z"/>
		<path fill="#FFFFFF" d="M112.54,14.168c0,0.587,0.193,1.022,0.584,1.307c0.389,0.284,0.887,0.427,1.49,0.427
			c0.201,0,0.404-0.018,0.611-0.053c0.205-0.035,0.402-0.096,0.59-0.184c0.189-0.088,0.34-0.208,0.453-0.361
			s0.172-0.344,0.172-0.571c0-0.21-0.059-0.388-0.172-0.532s-0.268-0.267-0.459-0.367c-0.193-0.101-0.402-0.187-0.631-0.256
			c-0.229-0.07-0.533-0.149-0.92-0.236c-0.254-0.07-0.455-0.123-0.604-0.158c-0.412-0.113-0.775-0.231-1.09-0.354
			c-0.314-0.122-0.602-0.282-0.859-0.479c-0.26-0.197-0.465-0.446-0.617-0.748c-0.154-0.303-0.23-0.663-0.23-1.084
			c0-0.464,0.098-0.875,0.295-1.234c0.197-0.358,0.465-0.656,0.801-0.893c0.338-0.236,0.715-0.414,1.131-0.532
			c0.414-0.118,0.842-0.178,1.279-0.178c0.508,0,0.988,0.058,1.439,0.171c0.449,0.114,0.848,0.294,1.193,0.539
			s0.619,0.56,0.822,0.945c0.201,0.385,0.301,0.841,0.301,1.365h-1.996c-0.025-0.524-0.203-0.893-0.531-1.103
			s-0.768-0.315-1.32-0.315c-0.385,0-0.717,0.088-0.998,0.263c-0.279,0.175-0.42,0.442-0.42,0.801c0,0.185,0.035,0.331,0.105,0.44
			s0.191,0.206,0.367,0.289s0.406,0.168,0.695,0.256s0.762,0.215,1.42,0.381c0.025,0,0.096,0.018,0.209,0.053
			c0.027,0.009,0.053,0.013,0.08,0.013c0.314,0.079,0.604,0.167,0.865,0.263c0.264,0.097,0.539,0.243,0.828,0.44
			c0.289,0.196,0.529,0.464,0.723,0.801c0.191,0.337,0.289,0.742,0.289,1.215c0,0.893-0.342,1.617-1.025,2.174
			c-0.682,0.556-1.641,0.834-2.875,0.834c-0.535,0-1.041-0.066-1.518-0.197c-0.477-0.132-0.902-0.335-1.273-0.61
			c-0.373-0.276-0.666-0.626-0.881-1.051s-0.32-0.917-0.32-1.478H112.54z"/>
	</g>
	<g>
		<path fill="#FFFFFF" d="M13.167,11.414C11.99,9.38,7.265,3.719,7.265,3.719S2.556,9.38,1.378,11.412
			c-0.579,1.001-0.911,2.166-0.911,3.407c0,3.757,3.046,6.804,6.805,6.804c3.76,0,6.807-3.047,6.807-6.804
			C14.079,13.578,13.746,12.414,13.167,11.414z M7.272,20.73c-3.385,0-6.127-2.743-6.127-6.126c0-1.118,0.299-2.165,0.82-3.067
			c1.061-1.829,5.301-6.928,5.301-6.928s4.253,5.099,5.312,6.93c0.523,0.901,0.821,1.948,0.821,3.065
			C13.4,17.987,10.657,20.73,7.272,20.73z"/>
		<path fill="#FFFFFF" d="M12.019,11.658c-0.948-1.637-4.753-6.197-4.753-6.197s-3.791,4.559-4.739,6.195
			c-0.467,0.808-0.735,1.745-0.735,2.743c0,3.027,2.455,5.48,5.48,5.48c3.027,0,5.479-2.453,5.479-5.48
			C12.751,13.401,12.486,12.466,12.019,11.658z M7.272,19.227c-2.696,0-4.884-2.186-4.884-4.884c0-0.89,0.238-1.725,0.655-2.443
			c0.844-1.459,4.225-5.522,4.225-5.522s3.39,4.063,4.235,5.522c0.414,0.72,0.654,1.554,0.654,2.443
			C12.158,17.041,9.969,19.227,7.272,19.227z"/>
		<path fill="#FFFFFF" d="M11.011,12.005c-0.747-1.29-3.743-4.883-3.743-4.883s-2.988,3.593-3.733,4.881
			c-0.369,0.637-0.579,1.374-0.579,2.161c0,2.386,1.932,4.318,4.316,4.318s4.318-1.933,4.318-4.318
			C11.59,13.378,11.379,12.64,11.011,12.005z M7.272,17.689c-2.051,0-3.714-1.664-3.714-3.715c0-0.678,0.182-1.312,0.498-1.859
			c0.644-1.109,3.213-4.2,3.213-4.2s2.578,3.091,3.221,4.2c0.316,0.547,0.498,1.182,0.498,1.859
			C10.988,16.025,9.324,17.689,7.272,17.689z"/>
		<path fill="#FFFFFF" d="M7.27,8.699c0,0-2.158,2.596-2.698,3.525c-0.266,0.46-0.418,0.993-0.418,1.562
			c0,1.723,1.396,3.119,3.118,3.119c1.723,0,3.119-1.396,3.119-3.119c0-0.568-0.152-1.101-0.417-1.561
			C9.433,11.295,7.27,8.699,7.27,8.699z"/>
	</g>
</g>
</svg>
