<svg xmlns="http://www.w3.org/2000/svg" viewBox="0 0 190.4815 28.9094">
  <defs>
    <style>
      .cls-1 {
        fill: #505050;
      }
    </style>
  </defs>
  <title>Recurso 9</title>
  <g id="Capa_2" data-name="Capa 2">
    <g id="Capa_1-2" data-name="Capa 1">
      <g>
        <g>
          <path class="cls-1" d="M36.9554,6.7559h4.6858l3.541,10.4115h.04l3.35-10.4115h4.6858V21.8968h-3.118V11.1656h-.04L46.3884,21.8968H43.821L40.1137,11.2721h-.042V21.8968H36.9554Z"/>
          <path class="cls-1" d="M56.1879,6.7559H67.5117V9.5541H59.5174V12.8h7.3388v2.5867H59.5174v3.7122h8.1655v2.7983H56.19V6.7559Zm5.9162-1.358H60.005l2.0345-3.01H65.369Z"/>
          <path class="cls-1" d="M73.6411,13.9654l-4.878-7.21h3.8607L75.5916,11.59,78.666,6.7559h3.6476L77.4582,13.988l5.28,7.9087H78.7742l-3.3085-5.238-3.3731,5.238H68.34Z"/>
          <path class="cls-1" d="M84.0736,6.7559h3.3295V21.8968H84.0736Z"/>
          <path class="cls-1" d="M100.4239,11.847a2.8275,2.8275,0,0,0-1.1044-1.8876,3.4358,3.4358,0,0,0-2.2041-.7637,3.9294,3.9294,0,0,0-1.8763.423,3.5353,3.5353,0,0,0-1.2837,1.1464,5.2,5.2,0,0,0-.7218,1.6534A8.1225,8.1225,0,0,0,93,14.39a7.5716,7.5716,0,0,0,.2341,1.8989,5.1492,5.1492,0,0,0,.7315,1.6228,3.5591,3.5591,0,0,0,1.2837,1.1335,3.9465,3.9465,0,0,0,1.8666.4134,3.1193,3.1193,0,0,0,2.3655-.922,4.207,4.207,0,0,0,1.0689-2.4689h3.2229a7.7263,7.7263,0,0,1-.6556,2.5447,6.1886,6.1886,0,0,1-1.41,1.96A6.1186,6.1186,0,0,1,99.66,21.8241a7.2229,7.2229,0,0,1-2.5447.436,7.6887,7.6887,0,0,1-3.1067-.6055A6.7076,6.7076,0,0,1,91.6545,19.98,7.4008,7.4008,0,0,1,90.18,17.4661a9.1652,9.1652,0,0,1-.507-3.0744,9.49,9.49,0,0,1,.507-3.1373,7.6087,7.6087,0,0,1,1.4742-2.5561,6.6129,6.6129,0,0,1,2.3542-1.6954,8.1441,8.1441,0,0,1,5.4819-.2438,6.2947,6.2947,0,0,1,2.0022,1.0592,5.7158,5.7158,0,0,1,1.4451,1.718,6.2666,6.2666,0,0,1,.7089,2.3122h-3.2229Z"/>
          <path class="cls-1" d="M105.8961,11.2528a7.5514,7.5514,0,0,1,1.4726-2.5561,6.6355,6.6355,0,0,1,2.3526-1.6954,8.2724,8.2724,0,0,1,6.2133,0A6.7279,6.7279,0,0,1,118.3,8.6967a7.3441,7.3441,0,0,1,1.4726,2.5561,9.6145,9.6145,0,0,1,.4989,3.1373,9.2,9.2,0,0,1-.4989,3.0647A7.2844,7.2844,0,0,1,118.3,19.9672a6.75,6.75,0,0,1-2.3655,1.6857,8.2724,8.2724,0,0,1-6.2133,0,6.7457,6.7457,0,0,1-2.3526-1.6744,7.3453,7.3453,0,0,1-1.4726-2.5141,9.1262,9.1262,0,0,1-.51-3.0744A9.4008,9.4008,0,0,1,105.8961,11.2528Zm3.0518,5.0362a5.0088,5.0088,0,0,0,.7315,1.6228,3.5328,3.5328,0,0,0,1.2837,1.1335,4.3816,4.3816,0,0,0,3.74-.0113A3.561,3.561,0,0,0,115.9863,17.9a5.0962,5.0962,0,0,0,.7218-1.6115,7.5716,7.5716,0,0,0,.2341-1.8989,8.1231,8.1231,0,0,0-.2341-1.9715,5.2042,5.2042,0,0,0-.7218-1.6534,3.55,3.55,0,0,0-1.2837-1.1464,4.3723,4.3723,0,0,0-3.7525,0,3.5353,3.5353,0,0,0-1.2837,1.1464,5.1241,5.1241,0,0,0-.7185,1.6534,7.9665,7.9665,0,0,0-.2341,1.9715A7.571,7.571,0,0,0,108.9478,16.289Z"/>
          <path class="cls-1" d="M122.54,6.7559H125.87V19.0985h7.3791v2.7983h-10.71V6.7559Z"/>
          <path class="cls-1" d="M135.1155,6.7559h11.3254V9.5541h-7.9943V12.8h7.3355v2.5867h-7.3355v3.7122h8.1655v2.7983h-11.495V6.7559Z"/>
          <path class="cls-1" d="M152.9933,6.7559h3.4118l5.6611,15.1409h-3.457l-1.1448-3.3715h-5.6611l-1.1884,3.3715h-3.3715Zm-.3181,9.2877h3.9237l-1.9118-5.5545h-.04Z"/>
          <path class="cls-1" d="M163.3806,6.7559H166.71v6.2779l5.9162-6.2779h4.1562l-5.9162,5.9792,6.491,9.1617h-4.1788l-4.56-6.8075-1.9086,1.93v4.878h-3.3295Z"/>
          <path class="cls-1" d="M180.9629,16.8719a2.4349,2.4349,0,0,0,.943,2.11,3.9816,3.9816,0,0,0,2.4059.6895,5.9031,5.9031,0,0,0,.9866-.0856,3.71,3.71,0,0,0,.9527-.2971,1.8678,1.8678,0,0,0,.7315-.5829,1.5135,1.5135,0,0,0,.2777-.922,1.3532,1.3532,0,0,0-.2777-.859,2.2587,2.2587,0,0,0-.7411-.5926,5.789,5.789,0,0,0-1.0189-.4134c-.37-.113-.8606-.2406-1.4855-.3811q-.6152-.17-.9753-.2551a17.8585,17.8585,0,0,1-1.76-.5716,5.61,5.61,0,0,1-1.387-.7734,3.4158,3.4158,0,0,1-.9963-1.2078,3.8151,3.8151,0,0,1-.3714-1.75,4.0721,4.0721,0,0,1,.4763-1.9925,4.259,4.259,0,0,1,1.2934-1.4419,6.0482,6.0482,0,0,1,1.8262-.859,7.5128,7.5128,0,0,1,2.0652-.2874,9.5344,9.5344,0,0,1,2.3235.2761,5.7329,5.7329,0,0,1,1.9263.87,4.3023,4.3023,0,0,1,1.3273,1.5259,4.7061,4.7061,0,0,1,.486,2.204h-3.2229a2.08,2.08,0,0,0-.8574-1.781,3.9131,3.9131,0,0,0-2.1314-.5086,2.9838,2.9838,0,0,0-1.6115.4247,1.4238,1.4238,0,0,0-.6782,1.2934,1.2994,1.2994,0,0,0,.17.71,1.3763,1.3763,0,0,0,.5926.4666,8.4992,8.4992,0,0,0,1.1222.4134q.7.2131,2.2929.6152a1.8225,1.8225,0,0,1,.3375.0856.4006.4006,0,0,0,.1292.021,13.8754,13.8754,0,0,1,1.3967.4247,6.1842,6.1842,0,0,1,1.337.71,3.845,3.845,0,0,1,1.1674,1.2934,3.9189,3.9189,0,0,1,.4666,1.9618,4.3158,4.3158,0,0,1-1.6551,3.51,7.1626,7.1626,0,0,1-4.6422,1.3466,9.2182,9.2182,0,0,1-2.4511-.3181,6.1878,6.1878,0,0,1-2.0555-.985,4.7344,4.7344,0,0,1-1.4225-1.697,5.215,5.215,0,0,1-.5167-2.3865h3.2245Z"/>
        </g>
        <g>
          <path class="cls-1" d="M20.5065,12.425C18.606,9.1407,10.9766,0,10.9766,0S3.3731,9.1407,1.471,12.4218a10.9913,10.9913,0,1,0,19.0356.0032ZM10.988,27.4675A9.8983,9.8983,0,0,1,2.4188,12.6236C4.132,9.67,10.9783,1.4371,10.9783,1.4371s6.8673,8.2333,8.5772,11.19A9.8935,9.8935,0,0,1,10.988,27.4675Z"/>
          <path class="cls-1" d="M18.6529,12.819c-1.5307-2.6432-7.6746-10.0062-7.6746-10.0062s-6.1213,7.3614-7.652,10.003a8.8462,8.8462,0,1,0,15.3266.0032ZM10.988,25.0406A7.8859,7.8859,0,0,1,4.1594,13.21c1.3628-2.3558,6.8221-8.9163,6.8221-8.9163s5.4738,6.56,6.8382,8.9163A7.8881,7.8881,0,0,1,10.988,25.0406Z"/>
          <path class="cls-1" d="M17.0253,13.3793c-1.2062-2.0829-6.0438-7.8845-6.0438-7.8845s-4.8247,5.8016-6.0276,7.8813a6.9715,6.9715,0,1,0,12.0714.0032ZM10.988,22.5572a6,6,0,0,1-5.1928-9c1.04-1.7907,5.188-6.7817,5.188-6.7817s4.1627,4.991,5.2009,6.7817a6,6,0,0,1-5.1961,9Z"/>
          <path class="cls-1" d="M10.9847,8.0411S7.5,12.2329,6.6283,13.7329a5.0351,5.0351,0,1,0,8.7225.0016C14.4773,12.2329,10.9847,8.0411,10.9847,8.0411Z"/>
        </g>
      </g>
    </g>
  </g>
</svg>
