<svg xmlns="http://www.w3.org/2000/svg" viewBox="0 0 155.8485 27.5067">
  <defs>
    <style>
      .cls-1 {
        fill: #505050;
      }
    </style>
  </defs>
  <title>Recurso 8</title>
  <g id="Capa_2" data-name="Capa 2">
    <g id="Capa_1-2" data-name="Capa 1">
      <g>
        <g>
          <path class="cls-1" d="M35.2077,6.5417l6.4968.03a6.1691,6.1691,0,0,1,2.2473.3852A4.0327,4.0327,0,0,1,46.392,9.48a5.353,5.353,0,0,1,.2762,1.7357,5.2986,5.2986,0,0,1-.2922,1.7331,4.0137,4.0137,0,0,1-2.4634,2.5,6.1691,6.1691,0,0,1-2.2508.3645l-3.329-.0154-.0238,5.1633-3.1677-.0146Zm3.1365,6.7956,2.4626.0114a5.862,5.862,0,0,0,1.09-.0887,2.6762,2.6762,0,0,0,.8771-.317,1.5512,1.5512,0,0,0,.61-.6547A2.4328,2.4328,0,0,0,43.6019,11.2a2.4328,2.4328,0,0,0-.2085-1.09,1.6114,1.6114,0,0,0-.6037-.67,2.4009,2.4009,0,0,0-.8742-.3282,7.0667,7.0667,0,0,0-1.0888-.0834L38.364,9.0174Z"/>
          <path class="cls-1" d="M48.6652,6.6038l10.7737.05-.0123,2.6639-7.606-.0351L51.8064,12.37l6.9807.0322-.0114,2.4611-6.9807-.0322-.0163,3.5318,7.7673.0358L59.5337,21.06,48.6,21.0092l.0665-14.4054Z"/>
          <path class="cls-1" d="M61.7386,6.6641,69.5059,6.7a4.8182,4.8182,0,0,1,1.7346.3106,3.7958,3.7958,0,0,1,1.3372.8649,3.8384,3.8384,0,0,1,.8406,1.2728,4.0526,4.0526,0,0,1,.2863,1.5468,4.2466,4.2466,0,0,1-.5649,2.2265,3.4089,3.4089,0,0,1-1.7316,1.3747l0,.0384a2.3309,2.3309,0,0,1,1.5385,1.187,5.38,5.38,0,0,1,.5429,2.1932c0,.0538.0067.2166.0193.4825q.0552,1.03.1624,1.7567a2.8345,2.8345,0,0,0,.4094,1.1725l-3.1677-.0146a3.3655,3.3655,0,0,1-.2477-.9291c-.0445-.352-.0869-.8008-.1243-1.354q-.0564-.7653-.116-1.1712a2.7786,2.7786,0,0,0-.6882-1.6777,2.4206,2.4206,0,0,0-1.7014-.5117l-3.1677-.0146-.026,5.6288-3.1677-.0146L61.74,6.6641Zm3.1361,6.5314,3.47.016a2.3542,2.3542,0,0,0,1.6353-.4871,2.0064,2.0064,0,0,0,.551-1.5614,1.923,1.923,0,0,0-.5369-1.5142,2.3867,2.3867,0,0,0-1.6308-.49l-3.47-.016Z"/>
          <path class="cls-1" d="M88.4894,15.7471a5.5672,5.5672,0,0,1-1.6223,4.3187,6.5193,6.5193,0,0,1-4.5587,1.443,6.5023,6.5023,0,0,1-4.5329-1.4758A5.5729,5.5729,0,0,1,76.2025,15.69l.0413-8.9594,3.1677.0146L79.37,15.705a5.9671,5.9671,0,0,0,.105,1.21,2.4481,2.4481,0,0,0,.4272.9806,2.1625,2.1625,0,0,0,.9155.6909,3.9064,3.9064,0,0,0,1.5028.2589A3.0335,3.0335,0,0,0,84.647,18.12a3.5379,3.5379,0,0,0,.6747-2.3889l.0413-8.9579,3.1677.0146ZM82.868,5.4711l-1.9987-.0092,1.9489-2.8562L85.986,2.62Z"/>
          <path class="cls-1" d="M91.2545,6.8l3.1677.0146-.0542,11.7446,7.0207.0324-.0123,2.6608-10.19-.047L91.253,6.8Z"/>
          <path class="cls-1" d="M103.2173,6.8554l10.7752.05L113.98,9.569l-7.606-.0351-.0142,3.0879,6.9822.0322-.0114,2.4611-6.9822-.0322-.0163,3.5318,7.7688.0358-.0123,2.6608-10.9365-.05.0665-14.4054Z"/>
          <path class="cls-1" d="M120.2266,6.9339l3.2461.015,5.32,14.43-3.2891-.0152-1.0744-3.2127-5.3861-.0248-1.1455,3.2025L114.69,21.314Zm-.3434,8.8351,3.7331.0172-1.7945-5.2915-.0384,0Z"/>
          <path class="cls-1" d="M130.1108,6.9795l3.1677.0146-.0276,5.9745L138.9074,7.02l3.9543.0182-5.6551,5.6628,6.1355,8.7452-3.9758-.0183-4.3085-6.4953L133.2335,16.76l-.0214,4.6395-3.1677-.0146Z"/>
          <path class="cls-1" d="M146.7946,16.6812a2.32,2.32,0,0,0,.8879,2.012,3.7981,3.7981,0,0,0,2.286.665,5.6165,5.6165,0,0,0,.939-.0771,3.53,3.53,0,0,0,.9077-.2785,1.7635,1.7635,0,0,0,.6985-.5514,1.4354,1.4354,0,0,0,.2683-.8744,1.2889,1.2889,0,0,0-.26-.82,2.1688,2.1688,0,0,0-.7025-.5671,5.7535,5.7535,0,0,0-.9676-.3978c-.3513-.1092-.8178-.2311-1.4117-.3691q-.5846-.164-.9268-.247a16.5922,16.5922,0,0,1-1.672-.5516,5.4147,5.4147,0,0,1-1.3162-.7435,3.2365,3.2365,0,0,1-.9426-1.1535,3.6253,3.6253,0,0,1-.3457-1.6669,3.8785,3.8785,0,0,1,.4619-1.8936,4.0665,4.0665,0,0,1,1.2369-1.3662,5.7148,5.7148,0,0,1,1.7413-.8077,7.09,7.09,0,0,1,1.9661-.2644A9.0721,9.0721,0,0,1,151.8522,7a5.5153,5.5153,0,0,1,1.8289.8365,4.1046,4.1046,0,0,1,1.2561,1.4576,4.4819,4.4819,0,0,1,.4527,2.0991l-3.0664-.0141a1.976,1.976,0,0,0-.8079-1.6967,3.7093,3.7093,0,0,0-2.0256-.4948,2.8262,2.8262,0,0,0-1.535.3985,1.3513,1.3513,0,0,0-.6509,1.2276,1.2342,1.2342,0,0,0,.1582.6752,1.2984,1.2984,0,0,0,.5617.4466,7.8732,7.8732,0,0,0,1.0659.3982q.665.2059,2.1788.5954a1.7339,1.7339,0,0,1,.3207.0829.3457.3457,0,0,0,.1228.0221,12.8261,12.8261,0,0,1,1.327.4086,5.9632,5.9632,0,0,1,1.2689.6834,3.6294,3.6294,0,0,1,1.105,1.2357,3.7245,3.7245,0,0,1,.4354,1.8686,4.1062,4.1062,0,0,1-1.59,3.3325,6.8236,6.8236,0,0,1-4.4226,1.2609,8.77,8.77,0,0,1-2.3306-.3134,5.92,5.92,0,0,1-1.9513-.9477,4.4786,4.4786,0,0,1-1.346-1.6208,4.9507,4.9507,0,0,1-.4811-2.2713l3.0679.0142Z"/>
        </g>
        <path class="cls-1" d="M19.533,11.8648C17.7393,8.7286,10.5206,0,10.5206,0S3.2463,8.6618,1.4238,11.7782a10.4582,10.4582,0,1,0,18.1093.0866ZM9.22,25.1152a6.7646,6.7646,0,0,1-6.7268-6.7876.9986.9986,0,0,1,1.9971.0092A4.7646,4.7646,0,0,0,9.23,23.1181.9986.9986,0,1,1,9.22,25.1152Z"/>
      </g>
    </g>
  </g>
</svg>
