<?xml version="1.0" encoding="utf-8"?>
<!-- Generator: Adobe Illustrator 16.0.0, SVG Export Plug-In . SVG Version: 6.00 Build 0)  -->
<!DOCTYPE svg PUBLIC "-//W3C//DTD SVG 1.1//EN" "http://www.w3.org/Graphics/SVG/1.1/DTD/svg11.dtd">
<svg version="1.1" id="Layer_1" xmlns="http://www.w3.org/2000/svg" xmlns:xlink="http://www.w3.org/1999/xlink" x="0px" y="0px"
	 width="102.511px" height="27.291px" viewBox="0 0 102.511 27.291" enable-background="new 0 0 102.511 27.291"
	 xml:space="preserve">
<g>
	<g>
		<path fill="#FFFFFF" d="M23.515,9.424h4.229c0.561,0,1.049,0.082,1.464,0.244c0.416,0.162,0.755,0.385,1.019,0.67
			c0.262,0.283,0.455,0.605,0.577,0.965s0.185,0.734,0.185,1.129s-0.062,0.771-0.185,1.129c-0.122,0.359-0.315,0.682-0.577,0.967
			c-0.264,0.283-0.603,0.508-1.019,0.668c-0.415,0.162-0.903,0.244-1.464,0.244h-2.167v3.361h-2.062V9.424z M25.577,13.838h1.603
			c0.262,0,0.498-0.021,0.709-0.061c0.21-0.039,0.4-0.109,0.57-0.209c0.172-0.102,0.303-0.244,0.395-0.428s0.139-0.42,0.139-0.709
			s-0.047-0.525-0.139-0.709s-0.223-0.328-0.395-0.434c-0.17-0.105-0.36-0.176-0.57-0.211c-0.211-0.033-0.447-0.051-0.709-0.051
			h-1.603V13.838z"/>
		<path fill="#FFFFFF" d="M32.275,9.424h7.013v1.734h-4.951v2.01h4.544v1.602h-4.544v2.299h5.056v1.732h-7.117V9.424z"/>
		<path fill="#FFFFFF" d="M40.785,9.424h5.056c0.411,0,0.788,0.066,1.13,0.197c0.341,0.131,0.632,0.318,0.873,0.559
			c0.24,0.24,0.424,0.516,0.551,0.826c0.127,0.312,0.191,0.646,0.191,1.006c0,0.568-0.121,1.053-0.361,1.451
			c-0.241,0.398-0.615,0.697-1.123,0.9v0.025c0.464,0.123,0.799,0.379,1.005,0.768c0.206,0.391,0.325,0.865,0.36,1.426
			c0,0.035,0.005,0.141,0.014,0.314c0.026,0.447,0.063,0.828,0.111,1.143c0.049,0.316,0.139,0.57,0.27,0.762h-2.062
			c-0.078-0.174-0.133-0.375-0.164-0.604c-0.03-0.229-0.059-0.521-0.085-0.881c-0.026-0.332-0.052-0.586-0.079-0.762
			c-0.07-0.506-0.221-0.871-0.453-1.09c-0.231-0.219-0.602-0.328-1.109-0.328h-2.062v3.664h-2.062V9.424z M42.846,13.666h2.259
			c0.473,0,0.827-0.107,1.063-0.322c0.237-0.213,0.354-0.553,0.354-1.018c0-0.445-0.117-0.773-0.354-0.984
			c-0.236-0.211-0.591-0.314-1.063-0.314h-2.259V13.666z"/>
		<path fill="#FFFFFF" d="M58.225,15.256c0,1.242-0.348,2.182-1.043,2.816c-0.697,0.635-1.684,0.953-2.963,0.953
			c-1.277,0-2.264-0.316-2.955-0.947c-0.691-0.629-1.037-1.57-1.037-2.822V9.424h2.062v5.832c0,0.289,0.023,0.551,0.072,0.787
			c0.047,0.236,0.143,0.449,0.281,0.637c0.141,0.189,0.34,0.338,0.598,0.447c0.26,0.109,0.586,0.164,0.979,0.164
			c0.719,0,1.223-0.16,1.512-0.479c0.287-0.32,0.432-0.84,0.432-1.557V9.424h2.062V15.256z M54.535,8.584h-1.301l1.26-1.865h2.062
			L54.535,8.584z"/>
		<path fill="#FFFFFF" d="M59.998,9.424h2.062v7.645h4.57v1.732h-6.633V9.424z"/>
		<path fill="#FFFFFF" d="M67.785,9.424h7.014v1.734h-4.951v2.01h4.545v1.602h-4.545v2.299h5.057v1.732h-7.119V9.424z"/>
		<path fill="#FFFFFF" d="M78.857,9.424h2.113l3.506,9.377h-2.141l-0.709-2.088h-3.506l-0.736,2.088h-2.088L78.857,9.424z
			 M78.66,15.176h2.43l-1.184-3.439h-0.025L78.66,15.176z"/>
		<path fill="#FFFFFF" d="M85.291,9.424h2.062v3.889l3.664-3.889h2.574l-3.664,3.703l4.02,5.674h-2.588l-2.824-4.215l-1.182,1.195
			v3.02h-2.062V9.424z"/>
		<path fill="#FFFFFF" d="M96.18,15.689c0,0.586,0.193,1.021,0.584,1.307c0.389,0.283,0.887,0.426,1.49,0.426
			c0.201,0,0.404-0.018,0.611-0.053c0.205-0.035,0.402-0.096,0.59-0.184c0.189-0.088,0.34-0.207,0.453-0.361
			c0.113-0.152,0.172-0.344,0.172-0.57c0-0.211-0.059-0.389-0.172-0.533s-0.268-0.266-0.459-0.367
			c-0.193-0.1-0.402-0.186-0.631-0.256s-0.533-0.148-0.92-0.236c-0.254-0.07-0.455-0.123-0.604-0.158
			c-0.412-0.113-0.775-0.23-1.09-0.354s-0.602-0.283-0.859-0.48c-0.26-0.197-0.465-0.445-0.617-0.748
			c-0.154-0.303-0.23-0.662-0.23-1.084c0-0.463,0.098-0.875,0.295-1.234c0.197-0.357,0.465-0.656,0.801-0.893
			c0.338-0.236,0.715-0.414,1.131-0.531c0.414-0.119,0.842-0.178,1.279-0.178c0.508,0,0.988,0.057,1.439,0.17
			c0.449,0.115,0.848,0.295,1.193,0.539c0.346,0.246,0.619,0.561,0.822,0.945c0.201,0.385,0.301,0.842,0.301,1.365h-1.996
			c-0.025-0.523-0.203-0.893-0.531-1.102c-0.328-0.211-0.768-0.316-1.32-0.316c-0.385,0-0.717,0.088-0.998,0.264
			c-0.279,0.174-0.42,0.441-0.42,0.801c0,0.184,0.035,0.33,0.105,0.439s0.191,0.207,0.367,0.289
			c0.176,0.084,0.406,0.168,0.695,0.256s0.762,0.215,1.42,0.381c0.025,0,0.096,0.018,0.209,0.053c0.027,0.01,0.053,0.014,0.08,0.014
			c0.314,0.078,0.604,0.166,0.865,0.262c0.264,0.098,0.539,0.244,0.828,0.441c0.289,0.195,0.529,0.463,0.723,0.801
			c0.191,0.336,0.289,0.742,0.289,1.215c0,0.893-0.342,1.617-1.025,2.174c-0.682,0.555-1.641,0.834-2.875,0.834
			c-0.535,0-1.041-0.066-1.518-0.197c-0.477-0.133-0.902-0.336-1.273-0.611c-0.373-0.275-0.666-0.625-0.881-1.051
			c-0.215-0.424-0.32-0.916-0.32-1.477H96.18z"/>
	</g>
	<g>
		<path fill="#FFFFFF" d="M13.328,12.936C12.151,10.9,7.426,5.24,7.426,5.24S2.717,10.9,1.54,12.934
			c-0.579,1-0.911,2.166-0.911,3.406c0,3.758,3.046,6.805,6.805,6.805c3.76,0,6.807-3.047,6.807-6.805
			C14.24,15.1,13.907,13.936,13.328,12.936z M6.655,21.592c-2.426,0-4.399-1.973-4.399-4.398c0-0.359,0.291-0.65,0.65-0.65
			s0.65,0.291,0.65,0.65c0,1.709,1.39,3.098,3.099,3.098c0.359,0,0.65,0.291,0.65,0.65S7.014,21.592,6.655,21.592z"/>
	</g>
</g>
</svg>
