<?xml version="1.0" encoding="UTF-8" standalone="no"?>
<svg width="118px" height="25px" viewBox="0 0 118 25" version="1.1" xmlns="http://www.w3.org/2000/svg" xmlns:xlink="http://www.w3.org/1999/xlink">
    <!-- Generator: Sketch 41.2 (35397) - http://www.bohemiancoding.com/sketch -->
    <title>XMLID_3_ Copy</title>
    <desc>Created with Sketch.</desc>
    <defs></defs>
    <g id="Page-1" stroke="none" stroke-width="1" fill="none" fill-rule="evenodd" opacity="0.8">
        <g id="logo_poder" transform="translate(-24.000000, -72.000000)" fill="#000000">
            <g id="XMLID_3_-Copy" transform="translate(24.000000, 72.000000)">
                <path d="M18.6,1.6 C21,1.6 22.8,2.3 24.2,3.6 C25.6,4.9 26.3,6.7 26.3,8.9 C26.3,11.2 25.6,13 24.1,14.2 C22.7,15.4 20.6,16 17.8,16 L4.1,16 L4.1,24.8 L0.3,24.8 L0.3,1.6 L18.6,1.6 Z M18,12.5 C21,12.5 22.4,11.3 22.4,8.9 C22.4,6.3 20.8,5.1 17.7,5.1 L4.1,5.1 L4.1,12.5 L18,12.5 Z" id="XMLID_15_"></path>
                <path d="M51.7,12.6 C51.7,16.4 50.1,19.5 47,21.8 C44.3,23.8 40.9,24.9 36.8,24.9 C32.7,24.9 29.3,23.9 26.6,21.8 C23.5,19.5 21.9,16.4 21.9,12.6 C21.9,8.9 23.5,5.9 26.6,3.5 C29.4,1.4 32.8,0.4 36.8,0.4 C40.8,0.4 44.2,1.4 46.9,3.5 C50.1,5.8 51.7,8.9 51.7,12.6 Z M47.7,12.6 C47.7,9.9 46.6,7.7 44.3,6 C42.3,4.6 39.9,3.8 36.9,3.8 C33.7,3.8 31.1,4.6 29,6.3 C27,7.9 26,10 26,12.6 C26,15.2 27,17.3 29,18.9 C31,20.5 33.6,21.3 36.9,21.3 C40.2,21.3 42.8,20.5 44.8,18.9 C46.7,17.3 47.7,15.2 47.7,12.6 Z" id="XMLID_12_"></path>
                <path d="M62.4,1.6 C66.4,1.6 69.6,2.7 72,4.8 C74.4,6.9 75.5,9.8 75.5,13.4 C75.5,16.7 74.3,19.4 71.8,21.6 C69.5,23.6 66.6,24.7 63.2,24.7 L47.8,24.7 L47.8,1.6 L62.4,1.6 Z M63.5,21.3 C65.8,21.3 67.7,20.6 69.2,19.1 C70.7,17.6 71.4,15.7 71.4,13.4 C71.4,10.9 70.6,8.9 69,7.4 C67.4,5.9 65.3,5.1 62.8,5.1 L51.6,5.1 L51.6,21.3 L63.5,21.3 Z" id="XMLID_9_"></path>
                <polygon id="XMLID_7_" points="95.6 24.7 71.4 24.7 71.4 1.6 95.6 1.6 95.6 5 75.2 5 75.2 11 88.7 11 88.7 14.4 75.2 14.4 75.2 21.2 95.6 21.2 95.6 24.7"></polygon>
                <path d="M118,24.7 L113.5,24.7 L107.2,15.9 L95.5,15.9 L95.5,24.7 L91.7,24.7 L91.7,1.6 L110,1.6 C112.4,1.6 114.3,2.3 115.7,3.6 C117.1,4.9 117.8,6.7 117.8,8.9 C117.8,10.9 117.2,12.4 116.1,13.6 C115.1,14.7 113.6,15.4 111.8,15.7 L118,24.7 Z M109.4,12.5 C112.4,12.5 113.8,11.3 113.8,8.9 C113.8,6.3 112.2,5.1 109,5.1 L95.5,5.1 L95.5,12.5 L109.4,12.5 Z" id="XMLID_4_"></path>
            </g>
        </g>
    </g>
</svg>