<?xml version="1.0" encoding="utf-8"?>
<!-- Generator: Adobe Illustrator 19.0.0, SVG Export Plug-In . SVG Version: 6.00 Build 0)  -->
<svg version="1.1" id="Layer_1" xmlns="http://www.w3.org/2000/svg" xmlns:xlink="http://www.w3.org/1999/xlink" x="0px" y="0px"
	 viewBox="0 0 146 25" style="enable-background:new 0 0 146 25;" xml:space="preserve">
<style type="text/css">
	.st0{opacity:0.6;fill:#FFFFFF;}
	.st1{opacity:0.5;fill:#FFFFFF;}
	.st2{opacity:0.7;fill:#FFFFFF;}
	.st3{fill:#FFFFFF;}
	.st4{opacity:0.8;fill:#FFFFFF;}
</style>
<ellipse id="XMLID_331_" transform="matrix(0.9056 0.4241 -0.4241 0.9056 7.4257 -1.6674)" class="st0" cx="7.5" cy="15.8" rx="5.6" ry="5.6"/>
<ellipse id="XMLID_330_" transform="matrix(0.9056 0.4241 -0.4241 0.9056 4.6428 -4.0099)" class="st1" cx="11.3" cy="8.4" rx="5.6" ry="5.6"/>
<ellipse id="XMLID_329_" transform="matrix(0.9056 0.4241 -0.4241 0.9056 8.1472 -4.9884)" class="st2" cx="15.3" cy="15.8" rx="5.6" ry="5.6"/>
<g id="XMLID_2_">
	<path id="XMLID_405_" class="st3" d="M0.1,13c0,0-0.1,0-0.1,0l0-0.1L0.1,13L0.1,13C0,12.9,0,12.8,0,12.8c0-0.1,0-0.2,0.2-0.1l0.3,0
		l0,0.1l-0.3,0c-0.1,0-0.1,0-0.1,0.1C0.1,12.8,0.1,12.9,0.1,13C0.2,12.9,0.2,12.9,0.1,13l0.3-0.1l0,0.1L0.1,13z"/>
	<path id="XMLID_403_" class="st3" d="M0.5,12.4C0.5,12.5,0.4,12.5,0.5,12.4c-0.1,0-0.1,0-0.1,0C0.4,12.4,0.4,12.4,0.5,12.4
		C0.5,12.4,0.5,12.4,0.5,12.4L0.5,12.4z"/>
	<path id="XMLID_400_" class="st3" d="M0.2,12c-0.1,0-0.1,0-0.1,0l0-0.1L0.2,12L0.2,12c-0.1-0.1-0.1-0.2-0.1-0.2
		c0-0.1,0.1-0.2,0.2-0.2c0.2,0,0.2,0.1,0.2,0.2c0,0.1,0,0.1-0.1,0.1l0,0l0.2,0l0,0.1L0.2,12z M0.3,12C0.3,12,0.3,12,0.3,12
		c0.1,0,0.1-0.1,0.1-0.1c0-0.1-0.1-0.1-0.2-0.2c-0.1,0-0.2,0-0.2,0.1c0,0.1,0,0.1,0.1,0.1C0.2,12,0.2,12,0.3,12L0.3,12z"/>
	<path id="XMLID_398_" class="st3" d="M0.3,11.5c-0.1,0-0.1,0-0.1,0l0-0.1L0.3,11.5L0.3,11.5c-0.1-0.1-0.1-0.2-0.1-0.2c0,0,0,0,0,0
		l0.1,0c0,0,0,0,0,0C0.2,11.4,0.2,11.4,0.3,11.5C0.3,11.4,0.3,11.4,0.3,11.5l0.3,0l0,0.1L0.3,11.5z"/>
	<path id="XMLID_395_" class="st3" d="M0.5,10.8c0.2,0,0.2,0.2,0.2,0.3c0,0.1-0.1,0.2-0.3,0.2c-0.1,0-0.2-0.1-0.2-0.3
		C0.2,10.9,0.3,10.8,0.5,10.8z M0.4,11.2c0.1,0,0.2,0,0.2-0.1c0-0.1,0-0.1-0.1-0.2c-0.1,0-0.2,0-0.2,0.1C0.2,11.1,0.3,11.2,0.4,11.2
		z"/>
	<path id="XMLID_392_" class="st3" d="M0.2,10.6C0.2,10.6,0.2,10.6,0.2,10.6C0.2,10.6,0.2,10.7,0.2,10.6C0.1,10.7,0.1,10.6,0.2,10.6
		C0.1,10.6,0.1,10.6,0.2,10.6z M0.8,10.9C0.8,10.9,0.8,10.8,0.8,10.9c0-0.1-0.1-0.1-0.2-0.2l-0.4-0.1l0-0.1l0.4,0.1
		c0.1,0,0.1,0,0.2,0.1C0.9,10.8,0.9,10.9,0.8,10.9L0.8,10.9z"/>
	<path id="XMLID_389_" class="st3" d="M0.6,10.4c0.1,0,0.2,0,0.2-0.1c0-0.1,0-0.1,0-0.1l0.1,0c0,0,0,0.1,0,0.1
		C0.8,10.5,0.7,10.6,0.6,10.4c-0.2,0-0.2-0.1-0.2-0.2c0-0.1,0.2-0.1,0.2-0.1c0,0,0,0,0,0L0.6,10.4z M0.6,10.2c0,0-0.1,0-0.2,0.1
		c0,0.1,0,0.1,0.1,0.2L0.6,10.2z"/>
	<path id="XMLID_387_" class="st3" d="M1,9.8c0,0,0,0.1,0,0.1c0,0.1-0.2,0.2-0.3,0.1c-0.1,0-0.2-0.2-0.2-0.3c0,0,0-0.1,0.1-0.1
		l0.1,0c0,0,0,0,0,0.1c0,0.1,0,0.2,0.1,0.2C0.8,10,0.9,10,1,9.8C0.9,9.8,0.9,9.8,1,9.8L1,9.8z"/>
	<path id="XMLID_385_" class="st3" d="M0.5,9.4L0.5,9.4l0.1-0.1l0.1,0l0,0.1l0.2,0.1c0.1,0,0.1,0,0.1,0c0,0,0,0,0,0l0.1,0
		c0,0,0,0,0,0.1c0,0,0,0.1-0.1,0.1c0,0-0.1,0-0.1,0L0.7,9.5l0,0.1l-0.1,0l0-0.1L0.5,9.4L0.5,9.4z"/>
	<path id="XMLID_382_" class="st3" d="M1.1,8.8C1.3,8.8,1.3,8.9,1.3,9c0,0.1-0.2,0.2-0.3,0.1C0.8,9.1,0.8,9,0.8,8.9
		C0.9,8.8,1,8.7,1.1,8.8z M1,9.1c0.1,0,0.2,0,0.2-0.1c0-0.1,0-0.2-0.1-0.2c-0.1,0-0.2,0-0.2,0.1C0.8,9,0.9,9.1,1,9.1z"/>
	<path id="XMLID_380_" class="st3" d="M1.1,8.6c0,0-0.1,0-0.1,0l0-0.1L1.1,8.6L1.1,8.6c0-0.1-0.1-0.2,0-0.3c0-0.1,0.1-0.1,0.2-0.1
		l0.2,0.1l0,0.1L1.3,8.4c-0.1,0-0.1,0-0.2,0C1.1,8.5,1.1,8.5,1.1,8.6C1.1,8.5,1.2,8.6,1.1,8.6l0.3,0.1l0,0.1L1.1,8.6z"/>
	<path id="XMLID_377_" class="st3" d="M1.7,7.6c0.1,0.1,0.2,0.2,0.1,0.3C1.7,8,1.6,8.1,1.5,8C1.3,7.9,1.3,7.8,1.4,7.7
		C1.4,7.6,1.5,7.6,1.7,7.6z M1.5,7.9c0.1,0,0.2,0,0.2,0c0-0.1,0-0.2-0.1-0.2c-0.1,0-0.2,0-0.2,0C1.4,7.8,1.4,7.9,1.5,7.9z"/>
	<path id="XMLID_375_" class="st3" d="M1.6,7.5c0,0-0.1,0-0.1-0.1l0-0.1L1.6,7.5L1.6,7.5c0-0.1-0.1-0.2,0-0.2c0,0,0,0,0,0l0.1,0
		c0,0,0,0,0,0C1.7,7.3,1.7,7.4,1.6,7.5C1.7,7.4,1.7,7.4,1.6,7.5l0.3,0.1l0,0.1L1.6,7.5z"/>
	<path id="XMLID_372_" class="st3" d="M2.2,7c0.1,0.1,0.1,0.1,0.1,0.2c0,0.1,0,0.1,0,0.2c0,0-0.1,0.1-0.1,0.1l0-0.1
		c0,0,0.1,0,0.1-0.1C2.3,7.2,2.3,7.2,2.2,7L2.2,7L2.2,7c0,0.1,0,0.2-0.1,0.2C2.1,7.3,2,7.3,1.9,7.3C1.7,7.2,1.7,7.1,1.8,7
		c0-0.1,0.1-0.1,0.1-0.1l0,0l-0.1,0l0-0.1c0,0,0.1,0,0.1,0.1L2.2,7z M2,7C2,7,2,7,2,7c-0.1,0-0.1,0-0.2,0c0,0.1,0,0.1,0.1,0.2
		c0.1,0,0.2,0.1,0.2,0C2.1,7.1,2.1,7.1,2,7C2.1,7,2.1,7,2,7L2,7z"/>
	<path id="XMLID_369_" class="st3" d="M2.4,6.6C2.5,6.6,2.5,6.7,2.4,6.6l0,0.1L2.4,6.6L2.4,6.6c0,0.1,0,0.2,0,0.2
		c-0.1,0.1-0.1,0.1-0.2,0c-0.1-0.1-0.1-0.2,0-0.3l0,0c0,0-0.1,0-0.1,0c0,0,0,0.1,0,0.1L2,6.7c0,0,0-0.1,0.1-0.1
		c0.1-0.1,0.2-0.1,0.2,0L2.4,6.6z M2.3,6.6c-0.1,0.1-0.1,0.2,0,0.2c0,0,0.1,0,0.1,0C2.4,6.8,2.4,6.7,2.3,6.6
		C2.4,6.7,2.4,6.7,2.3,6.6L2.3,6.6z"/>
	<path id="XMLID_367_" class="st3" d="M2.3,6.4C2.3,6.3,2.3,6.3,2.3,6.4L2.3,6.3L2.3,6.4L2.3,6.4c0-0.1,0-0.2,0-0.3
		c0,0,0.1-0.1,0.2,0l0.2,0.2l0,0.1L2.6,6.2c-0.1,0-0.1-0.1-0.2,0C2.4,6.2,2.4,6.3,2.3,6.4C2.4,6.3,2.4,6.3,2.3,6.4l0.3,0.1l0,0.1
		L2.3,6.4z"/>
	<path id="XMLID_364_" class="st3" d="M2.5,5.8C2.6,5.8,2.6,5.8,2.5,5.8C2.5,5.9,2.5,5.9,2.5,5.8C2.4,5.8,2.4,5.8,2.5,5.8
		C2.5,5.7,2.5,5.7,2.5,5.8z M2.9,6.2L2.6,5.9l0-0.1L2.9,6.2L2.9,6.2z"/>
	<path id="XMLID_362_" class="st3" d="M3,6L2.9,5.7c0,0,0-0.1,0-0.1l0,0L2.7,5.8l0,0l0.2-0.3l0,0L3,5.8C3,5.9,3,5.9,3,6L3,6l0.2-0.3
		l0,0L3,6L3,6z"/>
	<path id="XMLID_359_" class="st3" d="M3,5.2C3,5.3,3,5.3,3,5.2C3,5.3,2.9,5.3,3,5.2C2.9,5.3,2.9,5.3,3,5.2C2.9,5.2,2.9,5.2,3,5.2z
		 M3.3,5.7L3,5.4l0.1-0.1L3.3,5.7L3.3,5.7z"/>
	<path id="XMLID_357_" class="st3" d="M3.2,5.3C3.2,5.3,3.2,5.2,3.2,5.3l0-0.1L3.2,5.3L3.2,5.3c0-0.1,0-0.2,0.1-0.2
		c0,0,0.1-0.1,0.2,0l0.2,0.2L3.7,5.3L3.5,5.1c-0.1,0-0.1-0.1-0.2,0C3.3,5.2,3.3,5.2,3.2,5.3C3.3,5.3,3.3,5.3,3.2,5.3l0.3,0.2
		L3.5,5.5L3.2,5.3z"/>
	<path id="XMLID_354_" class="st3" d="M4,4.9C4.1,5,4.1,5,4.1,5.1c0,0.1,0,0.1-0.1,0.1c0,0-0.1,0.1-0.1,0.1l0-0.1c0,0,0.1,0,0.1-0.1
		C4.1,5.1,4.1,5,4,4.9L4,4.9L4,4.9C4,5,4,5,3.9,5.1c-0.1,0.1-0.2,0.1-0.3,0c-0.1-0.1-0.1-0.2,0-0.3c0.1-0.1,0.1-0.1,0.2,0l0,0l0-0.1
		l0.1,0c0,0,0,0.1,0.1,0.1L4,4.9z M3.8,4.8C3.8,4.8,3.8,4.8,3.8,4.8c-0.1,0-0.1,0-0.2,0C3.6,4.8,3.6,4.9,3.7,5
		c0.1,0.1,0.1,0.1,0.2,0C3.9,5,3.9,4.9,3.8,4.8C3.9,4.9,3.9,4.9,3.8,4.8L3.8,4.8z"/>
	<path id="XMLID_352_" class="st3" d="M4.3,5c0-0.1-0.1-0.1-0.1-0.2l0.1-0.1C4.3,4.8,4.3,4.9,4.3,5L4.3,5z"/>
	<path id="XMLID_349_" class="st3" d="M4.5,3.9l0.3,0.4c0,0,0.1,0.1,0.1,0.1l-0.1,0l0-0.1l0,0c0,0.1,0,0.1-0.1,0.2
		c-0.1,0.1-0.2,0-0.3-0.1c-0.1-0.1-0.1-0.2,0-0.3c0.1,0,0.1,0,0.1,0l0,0L4.5,3.9L4.5,3.9z M4.6,4.2C4.6,4.2,4.6,4.2,4.6,4.2
		c-0.1-0.1-0.1-0.1-0.2,0c-0.1,0.1-0.1,0.1,0,0.2c0.1,0.1,0.1,0.1,0.2,0C4.7,4.5,4.7,4.4,4.6,4.2C4.7,4.3,4.7,4.3,4.6,4.2L4.6,4.2z"
		/>
	<path id="XMLID_346_" class="st3" d="M4.9,4.1C5,4.2,5,4.2,5.1,4.2c0,0,0.1-0.1,0.1-0.1l0,0c0,0,0,0.1-0.1,0.1
		C5,4.3,4.9,4.3,4.9,4.1c-0.1-0.1-0.1-0.2,0-0.3c0.1-0.1,0.2,0,0.3,0.1c0,0,0,0,0,0L4.9,4.1z M5.1,3.9c0,0-0.1-0.1-0.2,0
		C4.8,4,4.8,4,4.9,4.1L5.1,3.9z"/>
	<path id="XMLID_344_" class="st3" d="M5.2,3.7l0.2,0.2c0,0,0.1,0,0.1,0.1l0,0c0,0,0-0.1,0-0.1L5.4,3.5l0.1,0L5.5,4L5.5,4L5.2,3.7
		L5.2,3.7z"/>
	<path id="XMLID_341_" class="st3" d="M5.7,3.6c0.1,0.1,0.1,0.1,0.2,0.1c0,0,0.1-0.1,0.1-0.1l0,0c0,0-0.1,0.1-0.1,0.1
		C5.8,3.8,5.7,3.8,5.7,3.6c-0.1-0.1-0.1-0.2,0-0.3c0.1-0.1,0.2,0,0.3,0.1c0,0,0,0,0,0L5.7,3.6z M5.8,3.5c0,0-0.1-0.1-0.2-0.1
		c-0.1,0-0.1,0.1,0,0.2L5.8,3.5z"/>
	<path id="XMLID_339_" class="st3" d="M5.8,3L5.8,3l0.4,0.5l-0.1,0L5.8,3z"/>
	<path id="XMLID_336_" class="st3" d="M6.6,3.1c0.1,0.1,0,0.3-0.1,0.3c-0.1,0.1-0.2,0-0.3-0.1C6.1,3.2,6.2,3.1,6.3,3
		C6.4,2.9,6.5,3,6.6,3.1z M6.3,3.3c0,0.1,0.1,0.1,0.2,0.1c0.1,0,0.1-0.1,0-0.2c0-0.1-0.1-0.1-0.2-0.1C6.2,3.1,6.2,3.2,6.3,3.3z"/>
	<path id="XMLID_333_" class="st3" d="M6.7,3c0-0.1,0-0.1-0.1-0.1l0.1,0L6.7,3L6.7,3c0.1-0.2,0.1-0.2,0.2-0.2c0.1,0,0.2,0,0.3,0.1
		c0.1,0.1,0,0.3-0.1,0.3c-0.1,0-0.1,0-0.2,0l0,0l0.1,0.2l-0.1,0L6.7,3z M6.8,3.1C6.8,3.1,6.8,3.1,6.8,3.1c0.1,0.1,0.1,0.1,0.2,0.1
		C7,3.1,7,3,7,2.9c0-0.1-0.1-0.1-0.2-0.1C6.8,2.9,6.7,2.9,6.7,3C6.7,3,6.7,3,6.8,3.1L6.8,3.1z"/>
	<path id="XMLID_312_" class="st3" d="M7.1,2.8c0,0,0-0.1,0-0.1l0.1,0L7.1,2.8L7.1,2.8c0.1-0.1,0.1-0.2,0.2-0.2c0.1,0,0.1,0,0.1,0
		l0,0c0,0,0-0.1,0-0.1c0,0,0,0,0.1-0.1c0.1,0,0.1,0,0.2,0.1l0.1,0.2l-0.1,0L7.7,2.6c0-0.1-0.1-0.1-0.1-0.1c0,0-0.1,0.1-0.1,0.1
		c0,0,0,0,0,0l0.1,0.3L7.5,3L7.4,2.7c0-0.1-0.1-0.1-0.1-0.1C7.2,2.7,7.2,2.7,7.1,2.8C7.2,2.8,7.2,2.8,7.1,2.8L7.3,3l-0.1,0L7.1,2.8z
		"/>
	<path id="XMLID_309_" class="st3" d="M7.9,2.6C8,2.7,8,2.7,8.1,2.7c0.1,0,0.1,0,0.1-0.1l0,0.1c0,0-0.1,0-0.1,0.1
		C8,2.8,7.9,2.7,7.9,2.6C7.8,2.5,7.8,2.4,8,2.3c0.1,0,0.2,0.1,0.2,0.1c0,0,0,0,0,0L7.9,2.6z M8.1,2.5c0,0-0.1-0.1-0.1-0.1
		c-0.1,0-0.1,0.1-0.1,0.2L8.1,2.5z"/>
	<path id="XMLID_307_" class="st3" d="M8.3,2.4c0,0,0-0.1,0-0.1l0.1,0L8.3,2.4L8.3,2.4c0.1-0.1,0.1-0.2,0.2-0.2c0.1,0,0.2,0,0.2,0.1
		l0.1,0.3l-0.1,0L8.6,2.4c0-0.1-0.1-0.1-0.1-0.1C8.4,2.3,8.4,2.3,8.3,2.4C8.4,2.4,8.4,2.4,8.3,2.4l0.2,0.3l-0.1,0L8.3,2.4z"/>
	<path id="XMLID_305_" class="st3" d="M8.8,2l0,0.1l0.1,0l0,0.1l-0.1,0l0.1,0.2c0,0.1,0,0.1,0.1,0.1c0,0,0,0,0,0l0,0.1
		c0,0,0,0-0.1,0c0,0-0.1,0-0.1,0c0,0,0-0.1-0.1-0.1L8.8,2.2l-0.1,0l0-0.1l0.1,0L8.8,2L8.8,2z"/>
	<path id="XMLID_303_" class="st3" d="M9.2,2.6c0-0.1,0-0.2,0-0.2l0.1,0C9.3,2.4,9.3,2.5,9.2,2.6L9.2,2.6z"/>
	<path id="XMLID_300_" class="st3" d="M9.6,2.2c0,0.1,0.1,0.1,0.2,0.1c0.1,0,0.1,0,0.1,0l0,0.1c0,0-0.1,0-0.1,0
		C9.7,2.4,9.6,2.3,9.6,2.2C9.5,2.1,9.6,2,9.7,1.9c0.1,0,0.2,0.1,0.2,0.2c0,0,0,0,0,0L9.6,2.2z M9.8,2.1c0-0.1,0-0.1-0.1-0.1
		C9.6,2,9.6,2.1,9.6,2.1L9.8,2.1z"/>
	<path id="XMLID_297_" class="st3" d="M10.4,1.7l0,0.5c0,0,0,0.1,0,0.1l-0.1,0l0-0.1l0,0c0,0.1-0.1,0.1-0.1,0.1
		c-0.1,0-0.2-0.1-0.2-0.2c0-0.1,0.1-0.2,0.2-0.3c0.1,0,0.1,0,0.1,0.1l0,0L10.4,1.7L10.4,1.7z M10.3,2.1C10.3,2.1,10.3,2,10.3,2.1
		c0-0.1-0.1-0.1-0.1-0.1c-0.1,0-0.1,0.1-0.1,0.2c0,0.1,0.1,0.2,0.1,0.1c0.1,0,0.1,0,0.1-0.1C10.3,2.2,10.3,2.2,10.3,2.1L10.3,2.1z"
		/>
	<path id="XMLID_295_" class="st3" d="M10.9,2.2c0,0,0,0.1,0,0.1l-0.1,0L10.9,2.2L10.9,2.2c-0.1,0.1-0.1,0.1-0.2,0.1
		c-0.1,0-0.2,0-0.2-0.2l0-0.3l0.1,0l0,0.2c0,0.1,0,0.1,0.1,0.1C10.8,2.2,10.8,2.2,10.9,2.2C10.9,2.2,10.9,2.1,10.9,2.2l-0.1-0.3
		l0.1,0L10.9,2.2z"/>
	<path id="XMLID_293_" class="st3" d="M11.4,2.3c0,0-0.1,0-0.1,0c-0.1,0-0.2-0.1-0.2-0.2c0-0.1,0.1-0.2,0.2-0.2c0,0,0.1,0,0.1,0
		l0,0.1c0,0,0,0-0.1,0c-0.1,0-0.2,0.1-0.2,0.2c0,0.1,0.1,0.2,0.2,0.2C11.3,2.2,11.4,2.2,11.4,2.3L11.4,2.3z"/>
	<path id="XMLID_290_" class="st3" d="M11.8,2.2c0,0,0,0.1,0,0.1l-0.1,0L11.8,2.2L11.8,2.2c-0.1,0.1-0.2,0.1-0.2,0.1
		c-0.1,0-0.1-0.1-0.1-0.1c0-0.1,0.1-0.2,0.3-0.2l0,0c0,0,0-0.1-0.1-0.1c0,0-0.1,0-0.1,0l0-0.1c0,0,0.1,0,0.1,0
		c0.1,0,0.2,0.1,0.2,0.2L11.8,2.2z M11.7,2.1c-0.1,0-0.2,0-0.2,0.1c0,0.1,0,0.1,0.1,0.1c0.1,0,0.1,0,0.1-0.1
		C11.7,2.2,11.7,2.2,11.7,2.1L11.7,2.1z"/>
	<path id="XMLID_288_" class="st3" d="M12.1,1.8l0,0.1l0.1,0l0,0.1l-0.1,0l0,0.2c0,0.1,0,0.1,0.1,0.1c0,0,0,0,0,0l0,0.1
		c0,0,0,0-0.1,0c0,0-0.1,0-0.1,0c0,0,0-0.1,0-0.1l0-0.2l-0.1,0l0-0.1L12.1,1.8L12.1,1.8L12.1,1.8z"/>
	<path id="XMLID_285_" class="st3" d="M12.3,2.3l0-0.4l0.1,0L12.3,2.3L12.3,2.3z M12.4,1.8C12.4,1.8,12.4,1.8,12.4,1.8
		C12.3,1.8,12.3,1.8,12.4,1.8C12.3,1.7,12.3,1.7,12.4,1.8C12.4,1.7,12.4,1.8,12.4,1.8z"/>
	<path id="XMLID_282_" class="st3" d="M12.9,2.2c0,0.2-0.1,0.2-0.2,0.2c-0.1,0-0.2-0.1-0.2-0.3c0-0.1,0.1-0.2,0.2-0.2
		C12.8,1.9,12.9,2,12.9,2.2z M12.6,2.1c0,0.1,0,0.2,0.1,0.2c0.1,0,0.1-0.1,0.2-0.2c0-0.1,0-0.2-0.1-0.2C12.6,2,12.6,2.1,12.6,2.1z"
		/>
	<path id="XMLID_280_" class="st3" d="M13,2.1c0,0,0-0.1,0-0.1l0.1,0L13,2.1L13,2.1C13.1,2,13.2,2,13.3,2c0.1,0,0.1,0.1,0.1,0.2
		l0,0.3l-0.1,0l0-0.2c0-0.1,0-0.1-0.1-0.1C13.2,2.1,13.1,2.1,13,2.1C13.1,2.1,13.1,2.2,13,2.1l0,0.3l-0.1,0L13,2.1z"/>
	<g id="XMLID_271_">
		<path id="XMLID_277_" class="st3" d="M14.1,2.5c0,0,0,0.1,0,0.1L14.1,2.5L14.1,2.5L14.1,2.5c-0.1,0.1-0.2,0.1-0.2,0.1
			c-0.1,0-0.1-0.1-0.1-0.2c0-0.1,0.1-0.1,0.3-0.1l0,0c0,0,0-0.1-0.1-0.1c0,0-0.1,0-0.1,0l0-0.1c0,0,0.1,0,0.1,0
			c0.1,0,0.1,0.1,0.1,0.2L14.1,2.5z M14.1,2.4c-0.1,0-0.2,0-0.2,0.1c0,0.1,0,0.1,0.1,0.1C14,2.5,14,2.5,14.1,2.4
			C14,2.5,14,2.5,14.1,2.4L14.1,2.4z"/>
		<path id="XMLID_275_" class="st3" d="M14.3,2.4c0,0,0-0.1,0-0.1L14.3,2.4L14.3,2.4L14.3,2.4c0.1-0.1,0.2-0.1,0.2-0.1
			c0.1,0,0.1,0.1,0.1,0.2l-0.1,0.3l-0.1,0l0.1-0.2c0-0.1,0-0.1-0.1-0.2C14.5,2.3,14.4,2.4,14.3,2.4C14.4,2.4,14.4,2.4,14.3,2.4
			l0,0.3l-0.1,0L14.3,2.4z"/>
		<path id="XMLID_272_" class="st3" d="M15.3,2.3l-0.2,0.5c0,0,0,0.1,0,0.1l-0.1,0l0-0.1l0,0c0,0-0.1,0.1-0.2,0
			c-0.1,0-0.1-0.1-0.1-0.3c0-0.1,0.2-0.2,0.3-0.2c0.1,0,0.1,0.1,0.1,0.1l0,0L15.3,2.3L15.3,2.3z M15.1,2.7
			C15.1,2.7,15.1,2.6,15.1,2.7c0-0.1,0-0.1-0.1-0.2c-0.1,0-0.1,0-0.2,0.1c0,0.1,0,0.2,0.1,0.2c0.1,0,0.1,0,0.1-0.1
			C15,2.8,15,2.8,15.1,2.7L15.1,2.7z"/>
	</g>
	<path id="XMLID_268_" class="st3" d="M15.6,2.8c0,0,0-0.1,0-0.1l0.1,0L15.6,2.8L15.6,2.8c0.1-0.1,0.2-0.1,0.2-0.1c0,0,0,0,0,0
		l0,0.1c0,0,0,0,0,0C15.7,2.8,15.7,2.8,15.6,2.8C15.7,2.9,15.6,2.9,15.6,2.8l0,0.3l-0.1,0L15.6,2.8z"/>
	<path id="XMLID_265_" class="st3" d="M15.9,3.1c0,0.1,0,0.2,0.1,0.2c0.1,0,0.1,0,0.1,0l0,0.1c0,0-0.1,0-0.1,0
		C15.8,3.3,15.8,3.1,15.9,3.1c0-0.2,0.1-0.2,0.2-0.2c0.1,0.1,0.1,0.2,0.1,0.3c0,0,0,0,0,0L15.9,3.1z M16.1,3.1c0,0,0-0.1,0-0.2
		c-0.1,0-0.1,0-0.2,0.1L16.1,3.1z"/>
	<path id="XMLID_263_" class="st3" d="M16.2,3.3C16.2,3.4,16.2,3.4,16.2,3.3c0.1,0.1,0.2,0.1,0.2,0.1c0,0,0-0.1,0-0.1
		c-0.1-0.1-0.1-0.1,0-0.2c0-0.1,0.1-0.1,0.2,0c0,0,0.1,0,0.1,0.1l0,0c0,0,0,0-0.1-0.1c0,0-0.1,0-0.1,0c0,0,0,0.1,0,0.1
		c0.1,0.1,0.1,0.1,0,0.2c0,0.1-0.1,0.1-0.2,0C16.2,3.4,16.2,3.4,16.2,3.3L16.2,3.3z"/>
	<path id="XMLID_260_" class="st3" d="M16.6,3.4c-0.1,0.1,0,0.2,0.1,0.2c0,0,0.1,0,0.1,0l0,0.1c0,0-0.1,0-0.1,0
		C16.5,3.6,16.5,3.5,16.6,3.4c0-0.2,0.1-0.2,0.2-0.2C17,3.3,17,3.5,16.9,3.5c0,0,0,0,0,0L16.6,3.4z M16.9,3.5c0,0,0-0.1,0-0.2
		c-0.1,0-0.1,0-0.2,0.1L16.9,3.5z"/>
	<path id="XMLID_257_" class="st3" d="M17.2,3.9C17.2,3.9,17.2,4,17.2,3.9l-0.1,0.1L17.2,3.9L17.2,3.9c-0.1,0-0.2,0-0.2,0
		c-0.1,0-0.1-0.1,0-0.2c0.1-0.1,0.2-0.1,0.3,0l0,0c0,0,0-0.1,0-0.1c0,0-0.1,0-0.1,0l0-0.1c0,0,0.1,0,0.1,0c0.1,0.1,0.1,0.2,0,0.2
		L17.2,3.9z M17.2,3.7c-0.1,0-0.2-0.1-0.2,0c0,0,0,0.1,0,0.1C17.1,3.9,17.1,3.9,17.2,3.7C17.2,3.8,17.2,3.8,17.2,3.7L17.2,3.7z"/>
	<path id="XMLID_255_" class="st3" d="M17.4,3.8c0,0,0.1-0.1,0.1-0.1l0.1,0L17.4,3.8L17.4,3.8c0.1,0,0.2,0,0.2,0c0,0,0,0,0,0l0,0.1
		c0,0,0,0,0,0C17.6,3.8,17.5,3.8,17.4,3.8c0,0.1,0,0.1,0,0.1l-0.1,0.2l-0.1,0L17.4,3.8z"/>
	<path id="XMLID_253_" class="st3" d="M17.8,4.4c0,0-0.1,0-0.1-0.1c-0.1-0.1-0.1-0.2,0-0.3C17.7,3.9,17.8,3.9,18,4C18,4,18,4,18,4.1
		l-0.1,0c0,0,0,0-0.1-0.1c-0.1-0.1-0.2,0-0.2,0C17.6,4.1,17.7,4.2,17.8,4.4C17.8,4.3,17.8,4.3,17.8,4.4L17.8,4.4z"/>
	<path id="XMLID_251_" class="st3" d="M18.3,3.9L18.3,3.9l-0.1,0.3l0,0c0,0,0.1,0,0.1,0c0,0,0.1,0,0.1,0c0,0,0.1,0.1,0,0.2l-0.2,0.2
		l-0.1,0l0.2-0.2c0-0.1,0.1-0.1,0-0.2c0,0-0.1,0-0.1,0c0,0,0,0,0,0l-0.2,0.2l-0.1,0L18.3,3.9z"/>
	<path id="XMLID_249_" class="st3" d="M18.7,4.6l-0.1,0.2c0,0,0,0.1,0,0.1l0,0c0,0,0.1,0,0.1-0.1l0.2-0.1L19,4.8L18.6,5L18.5,5
		L18.7,4.6L18.7,4.6z"/>
	<path id="XMLID_247_" class="st3" d="M18.7,5.2C18.7,5.2,18.7,5.2,18.7,5.2C18.8,5.1,18.8,5.1,18.7,5.2C18.8,5.1,18.8,5.2,18.7,5.2
		C18.8,5.2,18.8,5.2,18.7,5.2L18.7,5.2z"/>
	<path id="XMLID_245_" class="st3" d="M19.5,5.1L19.5,5.1l0,0.2l0,0l-0.1-0.1l-0.2,0.2c0,0,0,0.1,0,0.1c0,0,0,0,0,0l0,0
		c0,0,0,0-0.1,0c0,0,0-0.1,0-0.1c0,0,0-0.1,0.1-0.1l0.2-0.2l0,0l0,0l0,0L19.5,5.1L19.5,5.1z"/>
	<path id="XMLID_242_" class="st3" d="M19.7,5.8c-0.1,0.1-0.2,0.1-0.3,0c-0.1-0.1-0.1-0.2,0-0.3c0.1-0.1,0.2-0.1,0.3,0
		C19.8,5.6,19.8,5.7,19.7,5.8z M19.4,5.6c-0.1,0.1-0.1,0.2,0,0.2c0.1,0.1,0.1,0,0.2,0c0.1-0.1,0.1-0.1,0-0.2
		C19.6,5.5,19.5,5.5,19.4,5.6z"/>
	<path id="XMLID_239_" class="st3" d="M20.2,5.8L20.2,5.8L20,6l0,0c0.1,0,0.1,0,0.2,0.1c0.1,0.1,0,0.2-0.1,0.3
		c-0.1,0.1-0.2,0.1-0.3,0c0,0-0.1-0.1,0-0.2l0,0l-0.1,0l0-0.1c0,0,0.1,0,0.1-0.1L20.2,5.8z M19.9,6.1C19.9,6.2,19.9,6.2,19.9,6.1
		c-0.1,0.1-0.1,0.1,0,0.2c0.1,0.1,0.1,0.1,0.2,0c0.1-0.1,0.1-0.1,0-0.2C20.1,6.1,20,6.1,19.9,6.1C20,6.1,20,6.1,19.9,6.1L19.9,6.1z"
		/>
	<path id="XMLID_236_" class="st3" d="M20.2,6.5c-0.1,0.1-0.1,0.1,0,0.2c0,0,0.1,0.1,0.1,0.1l0,0c0,0-0.1,0-0.1-0.1
		C20,6.7,20.1,6.5,20.2,6.5c0.1-0.1,0.2-0.1,0.3,0c0.1,0.1,0,0.2-0.1,0.3c0,0,0,0,0,0L20.2,6.5z M20.4,6.7c0,0,0.1-0.1,0-0.2
		c0-0.1-0.1,0-0.2,0L20.4,6.7z"/>
	<path id="XMLID_233_" class="st3" d="M20.7,7.4C20.6,7.4,20.6,7.4,20.7,7.4l-0.1,0L20.7,7.4L20.7,7.4c-0.1,0-0.2-0.1-0.2-0.1
		c0-0.1,0-0.1,0-0.2c0.1-0.1,0.2,0,0.3,0.1l0,0c0,0,0.1-0.1,0-0.1c0,0-0.1-0.1-0.1-0.1l0,0c0,0,0.1,0.1,0.1,0.1
		c0.1,0.1,0,0.2-0.1,0.2L20.7,7.4z M20.7,7.2c0-0.1-0.1-0.1-0.2-0.1c0,0,0,0.1,0,0.1C20.6,7.3,20.6,7.3,20.7,7.2
		C20.7,7.3,20.7,7.3,20.7,7.2L20.7,7.2z"/>
	<path id="XMLID_230_" class="st3" d="M21.2,7.2L21.2,7.2L21,7.4l0,0c0.1,0,0.1,0,0.1,0.1c0.1,0.1,0,0.2-0.1,0.3
		c-0.1,0.1-0.3,0-0.3-0.1c0-0.1,0-0.1,0-0.2l0,0l-0.1,0l0-0.1c0,0,0.1,0,0.1-0.1L21.2,7.2z M20.8,7.5C20.8,7.5,20.8,7.5,20.8,7.5
		c-0.1,0.1-0.1,0.1,0,0.2c0,0.1,0.1,0.1,0.2,0c0.1,0,0.1-0.1,0.1-0.2C21.1,7.5,21,7.4,20.8,7.5C20.9,7.5,20.9,7.5,20.8,7.5L20.8,7.5
		z"/>
	<path id="XMLID_228_" class="st3" d="M21.5,7.7L21.5,7.7L21,8l0-0.1L21.5,7.7z"/>
	<path id="XMLID_225_" class="st3" d="M21.2,8.1c-0.1,0.1-0.1,0.1-0.1,0.2c0,0.1,0.1,0.1,0.1,0.1l0,0c0,0-0.1-0.1-0.1-0.1
		C21,8.2,21.1,8.1,21.2,8.1c0.1-0.1,0.2-0.1,0.3,0c0.1,0.1,0,0.2-0.1,0.3c0,0,0,0,0,0L21.2,8.1z M21.4,8.3c0,0,0.1-0.1,0.1-0.2
		c0-0.1-0.1-0.1-0.2-0.1L21.4,8.3z"/>
	<path id="XMLID_223_" class="st3" d="M21.9,8.6L21.9,8.6l-0.1,0.1l-0.1,0l0-0.1l-0.2,0.1c0,0-0.1,0-0.1,0.1c0,0,0,0,0,0l-0.1,0
		c0,0,0,0,0-0.1c0,0,0-0.1,0-0.1c0,0,0-0.1,0.1-0.1l0.2-0.1l0-0.1l0.1,0l0,0.1L21.9,8.6L21.9,8.6z"/>
	<path id="XMLID_220_" class="st3" d="M21.8,9.3c-0.2,0.1-0.3,0-0.3-0.1c0-0.1,0-0.2,0.1-0.3c0.1-0.1,0.3,0,0.3,0.1
		C22,9.2,21.9,9.3,21.8,9.3z M21.7,9c-0.1,0-0.1,0.1-0.1,0.2c0,0.1,0.1,0.1,0.2,0.1c0.1,0,0.1-0.1,0.1-0.2C21.8,9,21.7,9,21.7,9z"/>
	<path id="XMLID_218_" class="st3" d="M22,9.6c0,0,0.1,0,0.1,0l0,0.1L22,9.6L22,9.6c0.1,0.1,0.2,0.1,0.2,0.2c0,0.1,0,0.2-0.1,0.2
		l-0.2,0.1l0-0.1L22,9.9c0.1,0,0.1-0.1,0.1-0.1C22.1,9.7,22,9.7,22,9.6C22,9.7,22,9.7,22,9.6l-0.3,0.2l0-0.1L22,9.6z"/>
	<path id="XMLID_216_" class="st3" d="M21.8,10.2C21.8,10.2,21.8,10.2,21.8,10.2c0.1-0.1,0.1-0.1,0.1,0C22,10.2,21.9,10.3,21.8,10.2
		C21.9,10.3,21.8,10.3,21.8,10.2L21.8,10.2z"/>
	<path id="XMLID_213_" class="st3" d="M22.2,10.5c0.1,0,0.1,0,0.1,0l0,0.1L22.2,10.5L22.2,10.5c0.1,0.1,0.2,0.1,0.2,0.2
		c0,0.1,0,0.2-0.2,0.2c-0.2,0-0.3,0-0.3-0.1c0-0.1,0-0.1,0-0.1l0,0l-0.2,0.1l0-0.1L22.2,10.5z M22.1,10.6
		C22.1,10.6,22.1,10.6,22.1,10.6c-0.1,0-0.1,0.1-0.1,0.1c0,0.1,0.1,0.1,0.2,0.1c0.1,0,0.1-0.1,0.1-0.2c0-0.1-0.1-0.1-0.1-0.1
		C22.2,10.6,22.2,10.6,22.1,10.6L22.1,10.6z"/>
	<path id="XMLID_210_" class="st3" d="M22.3,11.5c-0.2,0-0.2-0.1-0.3-0.2c0-0.1,0-0.2,0.2-0.2c0.1,0,0.2,0.1,0.3,0.2
		C22.5,11.3,22.5,11.4,22.3,11.5z M22.3,11.1c-0.1,0-0.2,0.1-0.1,0.2c0,0.1,0.1,0.1,0.2,0.1c0.1,0,0.2-0.1,0.1-0.2
		C22.5,11.1,22.4,11.1,22.3,11.1z"/>
	<path id="XMLID_208_" class="st3" d="M22.6,11.6l-0.2,0.1c0,0-0.1,0-0.1,0l0,0c0,0,0.1,0,0.1,0l0.2,0l0,0.1l-0.2,0.1
		c-0.1,0-0.1,0-0.1,0.1l0,0c0,0,0.1,0,0.1,0l0.2,0l0,0.1L22.2,12l0-0.1l0.2-0.1c0,0,0.1,0,0.1-0.1l0,0c-0.1,0-0.1,0-0.1,0l-0.2,0
		l0-0.1L22.6,11.6L22.6,11.6z"/>
	<path id="XMLID_205_" class="st3" d="M22.4,12.3c-0.1,0-0.1,0.1-0.1,0.2c0,0.1,0,0.1,0,0.1l-0.1,0c0,0,0-0.1,0-0.1
		C22.2,12.3,22.3,12.2,22.4,12.3c0.1-0.1,0.2,0,0.3,0.1c0,0.1-0.1,0.2-0.2,0.2c0,0,0,0,0,0L22.4,12.3z M22.5,12.5
		c0.1,0,0.1,0,0.1-0.1c0-0.1-0.1-0.1-0.1-0.1L22.5,12.5z"/>
	<path id="XMLID_203_" class="st3" d="M22.5,12.7c0.1,0,0.1,0,0.1,0l0,0.1L22.5,12.7L22.5,12.7c0.1,0.1,0.2,0.1,0.2,0.2c0,0,0,0,0,0
		l-0.1,0c0,0,0,0,0,0C22.6,12.8,22.6,12.8,22.5,12.7C22.5,12.8,22.5,12.8,22.5,12.7l-0.3,0.1l0-0.1L22.5,12.7z"/>
	<path id="XMLID_201_" class="st3" d="M22.6,13.3c0,0,0.1,0,0.1,0l0,0.1L22.6,13.3L22.6,13.3c0.1,0.1,0.1,0.2,0.1,0.2
		c0,0.1,0,0.2-0.2,0.1l-0.3,0l0-0.1l0.3,0c0.1,0,0.1,0,0.1-0.1C22.6,13.4,22.6,13.4,22.6,13.3C22.5,13.4,22.5,13.4,22.6,13.3
		l-0.3,0.1l0-0.1L22.6,13.3z"/>
	<path id="XMLID_199_" class="st3" d="M22.2,13.8C22.2,13.8,22.3,13.8,22.2,13.8c0.1,0,0.1,0,0.1,0C22.3,13.8,22.3,13.9,22.2,13.8
		C22.2,13.9,22.2,13.8,22.2,13.8L22.2,13.8z"/>
	<path id="XMLID_196_" class="st3" d="M22.5,14.2c0.1,0,0.1,0,0.1,0l0,0.1L22.5,14.2L22.5,14.2c0.1,0.1,0.1,0.2,0.1,0.2
		c0,0.1-0.1,0.2-0.2,0.2c-0.2,0-0.2-0.1-0.2-0.2c0-0.1,0-0.1,0.1-0.1l0,0l-0.2,0l0-0.1L22.5,14.2z M22.4,14.3
		C22.4,14.3,22.4,14.3,22.4,14.3c-0.1,0-0.1,0.1-0.1,0.1c0,0.1,0.1,0.1,0.2,0.2c0.1,0,0.2,0,0.2-0.1c0-0.1,0-0.1-0.1-0.1
		C22.5,14.3,22.5,14.3,22.4,14.3L22.4,14.3z"/>
	<path id="XMLID_194_" class="st3" d="M22.4,14.7c0.1,0,0.1,0,0.1,0l0,0.1L22.4,14.7L22.4,14.7c0.1,0.1,0.1,0.2,0.1,0.2c0,0,0,0,0,0
		l-0.1,0c0,0,0,0,0,0C22.5,14.9,22.5,14.8,22.4,14.7C22.4,14.8,22.4,14.8,22.4,14.7l-0.3,0l0-0.1L22.4,14.7z"/>
	<path id="XMLID_191_" class="st3" d="M22.2,15.4c-0.2,0-0.2-0.2-0.2-0.3c0-0.1,0.1-0.2,0.3-0.2c0.1,0,0.2,0.1,0.2,0.3
		C22.5,15.4,22.4,15.4,22.2,15.4z M22.3,15.1c-0.1,0-0.2,0-0.2,0.1c0,0.1,0,0.1,0.1,0.2c0.1,0,0.2,0,0.2-0.1
		C22.5,15.1,22.4,15.1,22.3,15.1z"/>
	<path id="XMLID_188_" class="st3" d="M22.5,15.7C22.5,15.7,22.5,15.7,22.5,15.7C22.5,15.6,22.5,15.6,22.5,15.7
		C22.6,15.6,22.6,15.6,22.5,15.7C22.6,15.7,22.6,15.7,22.5,15.7z M21.9,15.4C21.9,15.4,21.9,15.4,21.9,15.4c0,0.1,0.1,0.1,0.2,0.2
		l0.4,0.1l0,0.1L22,15.6c-0.1,0-0.1,0-0.2-0.1C21.8,15.5,21.8,15.4,21.9,15.4L21.9,15.4z"/>
	<path id="XMLID_185_" class="st3" d="M22.1,15.8c-0.1,0-0.2,0-0.2,0.1c0,0.1,0,0.1,0,0.1l-0.1,0c0,0,0-0.1,0-0.1
		C21.9,15.8,22,15.7,22.1,15.8c0.2,0,0.2,0.1,0.2,0.2c0,0.1-0.2,0.1-0.2,0.1c0,0,0,0,0,0L22.1,15.8z M22.1,16c0,0,0.1,0,0.2-0.1
		c0-0.1,0-0.1-0.1-0.2L22.1,16z"/>
	<path id="XMLID_183_" class="st3" d="M21.7,16.5c0,0,0-0.1,0-0.1c0-0.1,0.2-0.2,0.3-0.1c0.1,0,0.2,0.2,0.2,0.3c0,0,0,0.1-0.1,0.1
		l-0.1,0c0,0,0,0,0-0.1c0-0.1,0-0.2-0.1-0.2C21.9,16.2,21.8,16.3,21.7,16.5C21.8,16.4,21.8,16.4,21.7,16.5L21.7,16.5z"/>
	<path id="XMLID_181_" class="st3" d="M22.2,16.8L22.2,16.8L22,16.9l-0.1,0l0-0.1l-0.2-0.1c-0.1,0-0.1,0-0.1,0c0,0,0,0,0,0l-0.1,0
		c0,0,0,0,0-0.1c0,0,0-0.1,0.1-0.1c0,0,0.1,0,0.1,0l0.2,0.1l0-0.1l0.1,0l0,0.1L22.2,16.8L22.2,16.8z"/>
	<path id="XMLID_178_" class="st3" d="M21.6,17.5c-0.2-0.1-0.2-0.2-0.1-0.3c0-0.1,0.2-0.2,0.3-0.1c0.1,0.1,0.2,0.2,0.1,0.3
		C21.8,17.5,21.7,17.5,21.6,17.5z M21.7,17.2c-0.1,0-0.2,0-0.2,0.1c0,0.1,0,0.2,0.1,0.2c0.1,0,0.2,0,0.2-0.1
		C21.8,17.3,21.8,17.2,21.7,17.2z"/>
	<path id="XMLID_176_" class="st3" d="M21.6,17.6c0,0,0.1,0,0.1,0l0,0.1L21.6,17.6L21.6,17.6c0,0.1,0.1,0.2,0,0.3
		c0,0.1-0.1,0.1-0.2,0.1l-0.2-0.1l0-0.1l0.2,0.1c0.1,0,0.1,0,0.2,0C21.6,17.8,21.6,17.7,21.6,17.6C21.6,17.7,21.5,17.7,21.6,17.6
		l-0.3-0.1l0-0.1L21.6,17.6z"/>
	<path id="XMLID_173_" class="st3" d="M21,18.6c-0.1-0.1-0.2-0.2-0.1-0.3c0.1-0.1,0.2-0.1,0.3-0.1c0.1,0.1,0.2,0.2,0.1,0.3
		C21.3,18.7,21.2,18.7,21,18.6z M21.2,18.3c-0.1,0-0.2,0-0.2,0c0,0.1,0,0.2,0.1,0.2c0.1,0,0.2,0,0.2,0
		C21.3,18.4,21.3,18.4,21.2,18.3z"/>
	<path id="XMLID_171_" class="st3" d="M21.1,18.8c0,0,0.1,0,0.1,0.1l0,0.1L21.1,18.8L21.1,18.8c0,0.1,0.1,0.2,0,0.2c0,0,0,0,0,0
		L21,19c0,0,0,0,0,0C21,18.9,21,18.9,21.1,18.8C21,18.8,21,18.8,21.1,18.8l-0.3-0.1l0-0.1L21.1,18.8z"/>
	<path id="XMLID_168_" class="st3" d="M20.5,19.2c-0.1-0.1-0.1-0.1-0.1-0.2c0-0.1,0-0.1,0-0.2c0,0,0.1-0.1,0.1-0.1l0,0.1
		c0,0-0.1,0-0.1,0.1C20.4,19,20.4,19.1,20.5,19.2L20.5,19.2L20.5,19.2c0-0.1,0-0.2,0.1-0.2c0.1-0.1,0.2-0.1,0.3,0
		c0.1,0.1,0.1,0.2,0.1,0.3c0,0.1-0.1,0.1-0.1,0.1l0,0l0.1,0l0,0.1c0,0-0.1,0-0.1-0.1L20.5,19.2z M20.7,19.3
		C20.7,19.3,20.7,19.3,20.7,19.3c0.1,0,0.1,0,0.2,0c0-0.1,0-0.1-0.1-0.2c-0.1,0-0.2-0.1-0.2,0C20.6,19.1,20.6,19.2,20.7,19.3
		C20.6,19.2,20.6,19.2,20.7,19.3L20.7,19.3z"/>
	<path id="XMLID_165_" class="st3" d="M20.3,19.6C20.2,19.6,20.2,19.6,20.3,19.6l0-0.1L20.3,19.6L20.3,19.6c0-0.1,0-0.2,0-0.2
		c0.1-0.1,0.1-0.1,0.2,0c0.1,0.1,0.1,0.2,0,0.3l0,0c0,0,0.1,0,0.1,0c0,0,0-0.1,0-0.1l0.1,0c0,0,0,0.1,0,0.1c-0.1,0.1-0.2,0.1-0.2,0
		L20.3,19.6z M20.4,19.6c0.1-0.1,0.1-0.2,0-0.2c0,0-0.1,0-0.1,0C20.3,19.5,20.3,19.5,20.4,19.6C20.3,19.6,20.3,19.6,20.4,19.6
		L20.4,19.6z"/>
	<path id="XMLID_163_" class="st3" d="M20.4,19.9C20.4,19.9,20.4,19.9,20.4,19.9l0.1,0.1L20.4,19.9L20.4,19.9c0,0.1,0,0.2,0,0.3
		c0,0-0.1,0.1-0.2,0L19.9,20l0-0.1l0.2,0.2c0.1,0,0.1,0.1,0.2,0C20.3,20,20.3,20,20.4,19.9C20.3,19.9,20.3,19.9,20.4,19.9l-0.3-0.1
		l0-0.1L20.4,19.9z"/>
	<path id="XMLID_160_" class="st3" d="M20.2,20.5C20.1,20.5,20.1,20.4,20.2,20.5C20.2,20.4,20.2,20.4,20.2,20.5
		C20.3,20.4,20.3,20.5,20.2,20.5C20.2,20.5,20.2,20.5,20.2,20.5z M19.8,20.1l0.3,0.3l0,0.1L19.8,20.1L19.8,20.1z"/>
	<path id="XMLID_158_" class="st3" d="M19.7,20.2l0.1,0.3c0,0,0,0.1,0,0.1l0,0l0.2-0.2l0,0l-0.2,0.3l0,0l-0.1-0.3
		C19.7,20.4,19.7,20.4,19.7,20.2L19.7,20.2l-0.2,0.3l0,0L19.7,20.2L19.7,20.2z"/>
	<path id="XMLID_155_" class="st3" d="M19.7,21C19.7,21,19.7,21,19.7,21C19.7,20.9,19.8,20.9,19.7,21C19.8,21,19.8,21,19.7,21
		C19.8,21,19.7,21,19.7,21z M19.4,20.6l0.3,0.3l-0.1,0.1L19.4,20.6L19.4,20.6z"/>
	<path id="XMLID_153_" class="st3" d="M19.5,20.9C19.5,21,19.5,21,19.5,20.9l0,0.1L19.5,20.9L19.5,20.9c0,0.1,0,0.2-0.1,0.2
		c0,0-0.1,0.1-0.2,0L19,21l0.1-0.1l0.2,0.2c0.1,0,0.1,0.1,0.2,0C19.4,21.1,19.4,21,19.5,20.9C19.4,21,19.4,21,19.5,20.9l-0.3-0.2
		l0.1-0.1L19.5,20.9z"/>
	<path id="XMLID_150_" class="st3" d="M18.7,21.4c-0.1-0.1-0.1-0.1-0.1-0.2c0-0.1,0-0.1,0.1-0.1c0,0,0.1-0.1,0.1-0.1l0,0.1
		c0,0-0.1,0-0.1,0.1C18.6,21.1,18.6,21.2,18.7,21.4L18.7,21.4L18.7,21.4c0.1-0.1,0.1-0.1,0.1-0.2c0.1-0.1,0.2-0.1,0.3,0
		c0.1,0.1,0.1,0.2,0,0.3c-0.1,0.1-0.1,0.1-0.2,0l0,0l0,0.1l-0.1,0c0,0,0-0.1-0.1-0.1L18.7,21.4z M18.9,21.5
		C18.9,21.5,18.9,21.5,18.9,21.5c0.1,0,0.1,0,0.2,0c0.1-0.1,0.1-0.1,0-0.2c-0.1-0.1-0.1-0.1-0.2,0C18.8,21.3,18.8,21.3,18.9,21.5
		C18.8,21.4,18.8,21.4,18.9,21.5L18.9,21.5z"/>
	<path id="XMLID_148_" class="st3" d="M18.4,21.3c0,0.1,0.1,0.1,0.1,0.2l-0.1,0.1C18.4,21.5,18.4,21.4,18.4,21.3L18.4,21.3z"/>
	<path id="XMLID_145_" class="st3" d="M18.2,22.4l-0.3-0.4c0,0-0.1-0.1-0.1-0.1l0.1,0l0,0.1l0,0c0-0.1,0-0.1,0.1-0.2
		c0.1-0.1,0.2,0,0.3,0.1c0.1,0.1,0.1,0.2,0,0.3c-0.1,0-0.1,0-0.1,0l0,0L18.2,22.4L18.2,22.4z M18.1,22C18.1,22,18.1,22,18.1,22
		c0.1,0.1,0.1,0.1,0.2,0c0.1-0.1,0.1-0.1,0-0.2c-0.1-0.1-0.1-0.1-0.2,0C18,21.8,18,21.9,18.1,22C18,21.9,18,21.9,18.1,22L18.1,22z"
		/>
	<path id="XMLID_142_" class="st3" d="M17.8,22.1c-0.1-0.1-0.1-0.1-0.2,0c0,0-0.1,0.1-0.1,0.1l0,0c0,0,0-0.1,0.1-0.1
		C17.7,21.9,17.8,22,17.8,22.1c0.1,0.1,0.1,0.2,0,0.3c-0.1,0.1-0.2,0-0.3-0.1c0,0,0,0,0,0L17.8,22.1z M17.6,22.3c0,0,0.1,0.1,0.2,0
		c0.1,0,0.1-0.1,0-0.2L17.6,22.3z"/>
	<path id="XMLID_140_" class="st3" d="M17.5,22.6l-0.2-0.2c0,0-0.1-0.1-0.1-0.1l0,0c0,0,0,0.1,0,0.1l0.1,0.3l-0.1,0l-0.1-0.5l0.1,0
		L17.5,22.6L17.5,22.6z"/>
	<path id="XMLID_137_" class="st3" d="M17,22.6c-0.1-0.1-0.1-0.1-0.2-0.1c0,0-0.1,0.1-0.1,0.1l0,0c0,0,0.1-0.1,0.1-0.1
		C16.9,22.4,17,22.5,17,22.6c0.1,0.1,0.1,0.2,0,0.3c-0.1,0.1-0.2,0-0.3-0.1c0,0,0,0,0,0L17,22.6z M16.9,22.8c0,0,0.1,0.1,0.2,0.1
		c0.1,0,0.1-0.1,0-0.2L16.9,22.8z"/>
	<path id="XMLID_135_" class="st3" d="M16.9,23.2L16.9,23.2l-0.4-0.5l0.1,0L16.9,23.2z"/>
	<path id="XMLID_132_" class="st3" d="M16.1,23.1c-0.1-0.1,0-0.3,0.1-0.3c0.1-0.1,0.2,0,0.3,0.1c0.1,0.1,0,0.3-0.1,0.3
		C16.3,23.3,16.2,23.3,16.1,23.1z M16.4,23c0-0.1-0.1-0.1-0.2-0.1c-0.1,0-0.1,0.1,0,0.2c0,0.1,0.1,0.1,0.2,0.1
		C16.5,23.1,16.5,23.1,16.4,23z"/>
	<path id="XMLID_129_" class="st3" d="M16,23.2c0,0.1,0,0.1,0.1,0.1l-0.1,0L16,23.2L16,23.2c-0.1,0.2-0.1,0.2-0.2,0.2
		c-0.1,0-0.2,0-0.3-0.1c-0.1-0.1,0-0.3,0.1-0.3c0.1,0,0.1,0,0.2,0l0,0l-0.1-0.2l0.1,0L16,23.2z M15.9,23.2
		C15.9,23.2,15.9,23.2,15.9,23.2c-0.1-0.1-0.1-0.1-0.2-0.1c-0.1,0-0.1,0.1-0.1,0.2c0,0.1,0.1,0.1,0.2,0.1c0.1,0,0.1-0.1,0.1-0.1
		C16,23.3,16,23.3,15.9,23.2L15.9,23.2z"/>
	<path id="XMLID_127_" class="st3" d="M15.6,23.5c0,0,0,0.1,0,0.1l-0.1,0L15.6,23.5L15.6,23.5c-0.1,0.1-0.1,0.2-0.2,0.2
		c-0.1,0-0.1,0-0.1,0l0,0c0,0,0,0.1,0,0.1c0,0,0,0-0.1,0.1c-0.1,0-0.1,0-0.2-0.1l-0.1-0.2l0.1,0l0.1,0.2c0,0.1,0.1,0.1,0.1,0.1
		c0,0,0.1-0.1,0.1-0.1c0,0,0,0,0,0l-0.1-0.3l0.1,0l0.1,0.2c0,0.1,0.1,0.1,0.1,0.1C15.5,23.6,15.5,23.5,15.6,23.5
		C15.5,23.5,15.5,23.5,15.6,23.5l-0.2-0.3l0.1,0L15.6,23.5z"/>
	<path id="XMLID_124_" class="st3" d="M14.8,23.7c0-0.1-0.1-0.1-0.2-0.1c-0.1,0-0.1,0-0.1,0.1l0-0.1c0,0,0.1,0,0.1-0.1
		C14.7,23.4,14.8,23.5,14.8,23.7c0.1,0.1,0.1,0.2-0.1,0.3c-0.1,0-0.2-0.1-0.2-0.1c0,0,0,0,0,0L14.8,23.7z M14.6,23.8
		c0,0,0.1,0.1,0.1,0.1c0.1,0,0.1-0.1,0.1-0.2L14.6,23.8z"/>
	<path id="XMLID_122_" class="st3" d="M14.4,23.9c0,0,0,0.1,0,0.1l-0.1,0L14.4,23.9L14.4,23.9c-0.1,0.1-0.1,0.2-0.2,0.2
		c-0.1,0-0.2,0-0.2-0.1L14,23.7l0.1,0l0.1,0.2c0,0.1,0.1,0.1,0.1,0.1C14.3,24,14.3,23.9,14.4,23.9C14.3,23.9,14.3,23.9,14.4,23.9
		l-0.2-0.3l0.1,0L14.4,23.9z"/>
	<path id="XMLID_120_" class="st3" d="M13.9,24.3l0-0.1l-0.1,0l0-0.1l0.1,0l-0.1-0.2c0-0.1,0-0.1-0.1-0.1c0,0,0,0,0,0l0-0.1
		c0,0,0,0,0.1,0c0,0,0.1,0,0.1,0c0,0,0,0.1,0.1,0.1l0.1,0.2l0.1,0l0,0.1l-0.1,0L13.9,24.3L13.9,24.3z"/>
	<path id="XMLID_118_" class="st3" d="M13.5,23.7c0,0.1,0,0.2,0,0.2l-0.1,0C13.4,23.8,13.4,23.7,13.5,23.7L13.5,23.7z"/>
	<path id="XMLID_115_" class="st3" d="M13.1,24c0-0.1-0.1-0.1-0.2-0.1c-0.1,0-0.1,0-0.1,0l0-0.1c0,0,0.1,0,0.1,0
		C13,23.8,13.1,23.9,13.1,24c0.1,0.1,0,0.2-0.1,0.3c-0.1,0-0.2-0.1-0.2-0.2c0,0,0,0,0,0L13.1,24z M12.9,24.1c0,0.1,0,0.1,0.1,0.1
		c0.1,0,0.1-0.1,0.1-0.1L12.9,24.1z"/>
	<path id="XMLID_112_" class="st3" d="M12.3,24.6l0-0.5c0,0,0-0.1,0-0.1l0.1,0l0,0.1l0,0c0-0.1,0.1-0.1,0.1-0.1
		c0.1,0,0.2,0.1,0.2,0.2c0,0.1-0.1,0.2-0.2,0.3c-0.1,0-0.1,0-0.1-0.1l0,0L12.3,24.6L12.3,24.6z M12.4,24.2
		C12.4,24.2,12.4,24.2,12.4,24.2c0,0.1,0.1,0.1,0.1,0.1c0.1,0,0.1-0.1,0.1-0.2c0-0.1-0.1-0.2-0.1-0.1c-0.1,0-0.1,0-0.1,0.1
		C12.4,24.1,12.4,24.1,12.4,24.2L12.4,24.2z"/>
	<path id="XMLID_110_" class="st3" d="M11.8,24.1c0,0,0-0.1,0-0.1l0.1,0L11.8,24.1L11.8,24.1c0.1-0.1,0.1-0.1,0.2-0.1
		c0.1,0,0.2,0,0.2,0.2l0,0.3l-0.1,0l0-0.2c0-0.1,0-0.1-0.1-0.1C11.9,24,11.9,24,11.8,24.1C11.8,24.1,11.8,24.1,11.8,24.1l0.1,0.3
		l-0.1,0L11.8,24.1z"/>
	<path id="XMLID_108_" class="st3" d="M11.3,24c0,0,0.1,0,0.1,0c0.1,0,0.2,0.1,0.2,0.2c0,0.1-0.1,0.2-0.2,0.2c0,0-0.1,0-0.1,0l0-0.1
		c0,0,0,0,0.1,0c0.1,0,0.2-0.1,0.2-0.2c0-0.1-0.1-0.2-0.2-0.2C11.4,24,11.3,24,11.3,24L11.3,24z"/>
	<path id="XMLID_105_" class="st3" d="M10.9,24.1c0,0,0-0.1,0-0.1l0.1,0L10.9,24.1L10.9,24.1c0.1-0.1,0.2-0.1,0.2-0.1
		c0.1,0,0.1,0.1,0.1,0.1c0,0.1-0.1,0.2-0.3,0.2l0,0c0,0,0,0.1,0.1,0.1c0,0,0.1,0,0.1,0l0,0.1c0,0-0.1,0-0.1,0
		c-0.1,0-0.2-0.1-0.2-0.2L10.9,24.1z M11,24.2c0.1,0,0.2,0,0.2-0.1c0-0.1,0-0.1-0.1-0.1C11,24,11,24,11,24.1
		C11,24.1,11,24.1,11,24.2L11,24.2z"/>
	<path id="XMLID_103_" class="st3" d="M10.6,24.5l0-0.1l-0.1,0l0-0.1l0.1,0l0-0.2c0-0.1,0-0.1-0.1-0.1c0,0,0,0,0,0l0-0.1
		c0,0,0,0,0.1,0c0,0,0.1,0,0.1,0c0,0,0,0.1,0,0.1l0,0.2l0.1,0l0,0.1L10.6,24.5L10.6,24.5L10.6,24.5z"/>
	<path id="XMLID_100_" class="st3" d="M10.4,23.9l0,0.4l-0.1,0L10.4,23.9L10.4,23.9z M10.3,24.5C10.3,24.4,10.3,24.4,10.3,24.5
		C10.4,24.4,10.4,24.5,10.3,24.5C10.4,24.5,10.4,24.5,10.3,24.5C10.3,24.5,10.3,24.5,10.3,24.5z"/>
	<path id="XMLID_97_" class="st3" d="M9.8,24.1c0-0.2,0.1-0.2,0.2-0.2c0.1,0,0.2,0.1,0.2,0.3c0,0.1-0.1,0.2-0.2,0.2
		C9.9,24.3,9.8,24.2,9.8,24.1z M10.1,24.1c0-0.1,0-0.2-0.1-0.2c-0.1,0-0.1,0.1-0.2,0.2c0,0.1,0,0.2,0.1,0.2
		C10.1,24.3,10.1,24.2,10.1,24.1z"/>
	<path id="XMLID_95_" class="st3" d="M9.7,24.1c0,0,0,0.1,0,0.1l-0.1,0L9.7,24.1L9.7,24.1c-0.1,0.1-0.2,0.1-0.2,0.1
		c-0.1,0-0.1-0.1-0.1-0.2l0-0.3l0.1,0l0,0.2c0,0.1,0,0.1,0.1,0.1C9.5,24.2,9.6,24.2,9.7,24.1C9.6,24.1,9.6,24.1,9.7,24.1l0-0.3
		l0.1,0L9.7,24.1z"/>
	<g id="XMLID_86_">
		<path id="XMLID_92_" class="st3" d="M8.6,23.7c0,0,0-0.1,0-0.1L8.6,23.7L8.6,23.7L8.6,23.7c0.1-0.1,0.2-0.1,0.2-0.1
			c0.1,0,0.1,0.1,0.1,0.2c0,0.1-0.1,0.1-0.3,0.1l0,0c0,0,0,0.1,0.1,0.1c0,0,0.1,0,0.1,0l0,0.1c0,0-0.1,0-0.1,0
			c-0.1,0-0.1-0.1-0.1-0.2L8.6,23.7z M8.6,23.9c0.1,0,0.2,0,0.2-0.1c0-0.1,0-0.1-0.1-0.1C8.7,23.7,8.7,23.7,8.6,23.9
			C8.7,23.8,8.7,23.8,8.6,23.9L8.6,23.9z"/>
		<path id="XMLID_90_" class="st3" d="M8.4,23.9c0,0,0,0.1,0,0.1L8.4,23.9L8.4,23.9L8.4,23.9C8.3,24,8.2,24,8.2,24
			c-0.1,0-0.1-0.1-0.1-0.2l0.1-0.3l0.1,0l-0.1,0.2c0,0.1,0,0.1,0.1,0.2C8.2,23.9,8.3,23.9,8.4,23.9C8.3,23.8,8.3,23.8,8.4,23.9
			l0-0.3l0.1,0L8.4,23.9z"/>
		<path id="XMLID_87_" class="st3" d="M7.4,23.9l0.2-0.5c0,0,0-0.1,0-0.1l0.1,0l0,0.1l0,0c0,0,0.1-0.1,0.2,0C8,23.4,8,23.5,8,23.6
			c0,0.1-0.2,0.2-0.3,0.2c-0.1,0-0.1-0.1-0.1-0.1l0,0L7.4,23.9L7.4,23.9z M7.6,23.6C7.6,23.6,7.6,23.6,7.6,23.6c0,0.1,0,0.1,0.1,0.2
			c0.1,0,0.1,0,0.2-0.1c0-0.1,0-0.2-0.1-0.2c-0.1,0-0.1,0-0.1,0.1C7.7,23.5,7.7,23.5,7.6,23.6L7.6,23.6z"/>
	</g>
	<path id="XMLID_84_" class="st3" d="M7.1,23.4c0,0,0,0.1,0,0.1l-0.1,0L7.1,23.4L7.1,23.4c-0.1,0.1-0.2,0.1-0.2,0.1c0,0,0,0,0,0
		l0-0.1c0,0,0,0,0,0C7,23.4,7,23.4,7.1,23.4C7,23.4,7.1,23.3,7.1,23.4l0-0.3l0.1,0L7.1,23.4z"/>
	<path id="XMLID_81_" class="st3" d="M6.8,23.2c0-0.1,0-0.2-0.1-0.2c-0.1,0-0.1,0-0.1,0l0-0.1c0,0,0.1,0,0.1,0
		C6.9,23,6.9,23.1,6.8,23.2c0,0.2-0.1,0.2-0.2,0.2c-0.1-0.1-0.1-0.2-0.1-0.3c0,0,0,0,0,0L6.8,23.2z M6.6,23.2c0,0,0,0.1,0,0.2
		c0.1,0,0.1,0,0.2-0.1L6.6,23.2z"/>
	<path id="XMLID_79_" class="st3" d="M6.5,22.9C6.5,22.9,6.5,22.9,6.5,22.9c-0.1-0.1-0.2-0.1-0.2-0.1c0,0,0,0.1,0,0.1
		c0.1,0.1,0.1,0.1,0,0.2c0,0.1-0.1,0.1-0.2,0c0,0-0.1,0-0.1-0.1l0,0c0,0,0,0,0.1,0.1c0,0,0.1,0,0.1,0c0,0,0-0.1,0-0.1
		c-0.1-0.1-0.1-0.1,0-0.2c0-0.1,0.1-0.1,0.2,0C6.5,22.8,6.5,22.8,6.5,22.9L6.5,22.9z"/>
	<path id="XMLID_76_" class="st3" d="M6.1,22.8c0.1-0.1,0-0.2-0.1-0.2c0,0-0.1,0-0.1,0l0-0.1c0,0,0.1,0,0.1,0
		C6.2,22.6,6.2,22.7,6.1,22.8C6.1,23,5.9,23,5.8,23c-0.1-0.1-0.1-0.2-0.1-0.3c0,0,0,0,0,0L6.1,22.8z M5.8,22.8c0,0,0,0.1,0,0.2
		c0.1,0,0.1,0,0.2-0.1L5.8,22.8z"/>
	<path id="XMLID_73_" class="st3" d="M5.5,22.4C5.5,22.3,5.5,22.3,5.5,22.4l0.1-0.1L5.5,22.4L5.5,22.4c0.1,0,0.2,0,0.2,0
		c0.1,0,0.1,0.1,0,0.2c-0.1,0.1-0.2,0.1-0.3,0l0,0c0,0,0,0.1,0,0.1c0,0,0.1,0,0.1,0l0,0.1c0,0-0.1,0-0.1,0c-0.1-0.1-0.1-0.2,0-0.2
		L5.5,22.4z M5.5,22.5c0.1,0,0.2,0.1,0.2,0c0,0,0-0.1,0-0.1C5.6,22.4,5.6,22.4,5.5,22.5C5.5,22.4,5.5,22.4,5.5,22.5L5.5,22.5z"/>
	<path id="XMLID_71_" class="st3" d="M5.3,22.5c0,0-0.1,0.1-0.1,0.1l-0.1,0L5.3,22.5L5.3,22.5c-0.1,0-0.2,0-0.2,0c0,0,0,0,0,0l0-0.1
		c0,0,0,0,0,0C5.1,22.4,5.2,22.4,5.3,22.5c0-0.1,0-0.1,0-0.1l0.1-0.2l0.1,0L5.3,22.5z"/>
	<path id="XMLID_69_" class="st3" d="M4.9,21.9c0,0,0.1,0,0.1,0.1c0.1,0.1,0.1,0.2,0,0.3c-0.1,0.1-0.2,0.1-0.3,0.1
		c0,0-0.1-0.1-0.1-0.1l0.1,0c0,0,0,0,0.1,0.1c0.1,0.1,0.2,0,0.2,0C5.1,22.1,5,22,4.9,21.9C4.9,21.9,4.9,21.9,4.9,21.9L4.9,21.9z"/>
	<path id="XMLID_67_" class="st3" d="M4.4,22.3L4.4,22.3L4.5,22l0,0c0,0-0.1,0-0.1,0c0,0-0.1,0-0.1,0c0,0-0.1-0.1,0-0.2l0.2-0.2
		l0.1,0l-0.2,0.2c0,0.1-0.1,0.1,0,0.2c0,0,0.1,0,0.1,0c0,0,0,0,0,0l0.2-0.2l0.1,0L4.4,22.3z"/>
	<path id="XMLID_65_" class="st3" d="M4,21.7l0.1-0.2c0,0,0-0.1,0-0.1l0,0c0,0-0.1,0-0.1,0.1l-0.2,0.1l-0.1-0.1l0.4-0.2l0.1,0.1
		L4,21.7L4,21.7z"/>
	<path id="XMLID_63_" class="st3" d="M4,21C4,21.1,4,21.1,4,21C3.9,21.1,3.9,21.1,4,21C3.9,21.1,3.9,21.1,4,21C3.9,21,3.9,21,4,21
		L4,21z"/>
	<path id="XMLID_61_" class="st3" d="M3.2,21.1L3.2,21.1l0-0.2l0,0L3.3,21l0.2-0.2c0,0,0-0.1,0-0.1c0,0,0,0,0,0l0,0c0,0,0,0,0.1,0
		c0,0,0,0.1,0,0.1c0,0,0,0.1-0.1,0.1l-0.2,0.2l0,0l0,0l0,0L3.2,21.1L3.2,21.1z"/>
	<path id="XMLID_58_" class="st3" d="M3,20.4c0.1-0.1,0.2-0.1,0.3,0c0.1,0.1,0.1,0.2,0,0.3c-0.1,0.1-0.2,0.1-0.3,0
		C2.9,20.7,2.9,20.5,3,20.4z M3.3,20.7c0.1-0.1,0.1-0.2,0-0.2c-0.1-0.1-0.1,0-0.2,0c-0.1,0.1-0.1,0.1,0,0.2
		C3.1,20.8,3.2,20.8,3.3,20.7z"/>
	<path id="XMLID_55_" class="st3" d="M2.5,20.5L2.5,20.5l0.2-0.2l0,0c-0.1,0-0.1,0-0.2-0.1c-0.1-0.1,0-0.2,0.1-0.3
		c0.1-0.1,0.2-0.1,0.3,0c0,0,0.1,0.1,0,0.2l0,0L3,20l0,0.1c0,0-0.1,0-0.1,0.1L2.5,20.5z M2.8,20.1C2.8,20.1,2.8,20.1,2.8,20.1
		c0.1-0.1,0.1-0.1,0-0.2c-0.1-0.1-0.1-0.1-0.2,0c-0.1,0.1-0.1,0.1,0,0.2C2.6,20.2,2.7,20.2,2.8,20.1C2.7,20.2,2.7,20.2,2.8,20.1
		L2.8,20.1z"/>
	<path id="XMLID_52_" class="st3" d="M2.5,19.7c0.1-0.1,0.1-0.1,0-0.2c0,0-0.1-0.1-0.1-0.1l0,0c0,0,0.1,0,0.1,0.1
		C2.6,19.6,2.6,19.7,2.5,19.7c-0.1,0.1-0.2,0.1-0.3,0c-0.1-0.1,0-0.2,0.1-0.3c0,0,0,0,0,0L2.5,19.7z M2.3,19.6c0,0-0.1,0.1,0,0.2
		c0,0.1,0.1,0,0.2,0L2.3,19.6z"/>
	<path id="XMLID_49_" class="st3" d="M2,18.9C2.1,18.9,2.1,18.9,2,18.9l0.1,0L2,18.9L2,18.9c0.1,0,0.2,0.1,0.2,0.1
		c0,0.1,0,0.1,0,0.2c-0.1,0.1-0.2,0-0.3-0.1l0,0c0,0-0.1,0.1,0,0.1c0,0,0.1,0.1,0.1,0.1l0,0c0,0-0.1-0.1-0.1-0.1
		c-0.1-0.1,0-0.2,0.1-0.2L2,18.9z M2,19c0,0.1,0.1,0.1,0.2,0.1c0,0,0-0.1,0-0.1C2.1,19,2.1,19,2,19C2,19,2,19,2,19L2,19z"/>
	<path id="XMLID_46_" class="st3" d="M1.5,19.1L1.5,19.1l0.2-0.2l0,0c-0.1,0-0.1,0-0.1-0.1c-0.1-0.1,0-0.2,0.1-0.3
		c0.1-0.1,0.3,0,0.3,0.1c0,0.1,0,0.1,0,0.2l0,0l0.1,0l0,0.1c0,0-0.1,0-0.1,0.1L1.5,19.1z M1.8,18.7C1.9,18.7,1.9,18.7,1.8,18.7
		c0.1-0.1,0.1-0.1,0-0.2c0-0.1-0.1-0.1-0.2,0c-0.1,0-0.1,0.1-0.1,0.2C1.6,18.8,1.7,18.8,1.8,18.7C1.8,18.8,1.8,18.8,1.8,18.7
		L1.8,18.7z"/>
	<path id="XMLID_44_" class="st3" d="M1.2,18.6L1.2,18.6l0.5-0.4l0,0.1L1.2,18.6z"/>
	<path id="XMLID_41_" class="st3" d="M1.5,18.1c0.1-0.1,0.1-0.1,0.1-0.2c0-0.1-0.1-0.1-0.1-0.1l0,0c0,0,0.1,0.1,0.1,0.1
		C1.7,18,1.6,18.1,1.5,18.1c-0.1,0.1-0.2,0.1-0.3,0c-0.1-0.1,0-0.2,0.1-0.3c0,0,0,0,0,0L1.5,18.1z M1.3,17.9c0,0-0.1,0.1-0.1,0.2
		c0,0.1,0.1,0.1,0.2,0.1L1.3,17.9z"/>
	<path id="XMLID_39_" class="st3" d="M0.8,17.6L0.8,17.6l0.1-0.1l0.1,0l0,0.1l0.2-0.1c0,0,0.1,0,0.1-0.1c0,0,0,0,0,0l0.1,0
		c0,0,0,0,0,0.1c0,0,0,0.1,0,0.1c0,0,0,0.1-0.1,0.1L1,17.6l0,0.1l-0.1,0l0-0.1L0.8,17.6L0.8,17.6z"/>
	<path id="XMLID_36_" class="st3" d="M0.9,16.9c0.2-0.1,0.3,0,0.3,0.1c0,0.1,0,0.2-0.1,0.3c-0.1,0.1-0.3,0-0.3-0.1
		C0.7,17.1,0.8,17,0.9,16.9z M1,17.2c0.1,0,0.1-0.1,0.1-0.2C1.1,17,1,16.9,0.9,17c-0.1,0-0.1,0.1-0.1,0.2C0.9,17.3,1,17.3,1,17.2z"
		/>
	<path id="XMLID_34_" class="st3" d="M0.7,16.6c0,0-0.1,0-0.1,0l0-0.1L0.7,16.6L0.7,16.6c-0.1-0.1-0.2-0.1-0.2-0.2
		c0-0.1,0-0.2,0.1-0.2l0.2-0.1l0,0.1l-0.2,0.1c-0.1,0-0.1,0.1-0.1,0.1C0.6,16.5,0.7,16.5,0.7,16.6C0.7,16.5,0.7,16.5,0.7,16.6
		L1,16.5l0,0.1L0.7,16.6z"/>
	<path id="XMLID_32_" class="st3" d="M0.9,16C0.9,16,0.9,16.1,0.9,16c-0.1,0.1-0.1,0.1-0.1,0C0.7,16,0.8,16,0.9,16
		C0.8,16,0.9,16,0.9,16L0.9,16z"/>
	<path id="XMLID_29_" class="st3" d="M0.5,15.7c-0.1,0-0.1,0-0.1,0l0-0.1L0.5,15.7L0.5,15.7c-0.1-0.1-0.2-0.1-0.2-0.2
		c0-0.1,0-0.2,0.2-0.2c0.2,0,0.3,0,0.3,0.1c0,0.1,0,0.1,0,0.1l0,0l0.2-0.1l0,0.1L0.5,15.7z M0.6,15.6C0.6,15.6,0.6,15.6,0.6,15.6
		c0.1,0,0.1-0.1,0.1-0.1c0-0.1-0.1-0.1-0.2-0.1c-0.1,0-0.1,0.1-0.1,0.2c0,0.1,0.1,0.1,0.1,0.1C0.5,15.6,0.5,15.6,0.6,15.6L0.6,15.6z
		"/>
	<path id="XMLID_26_" class="st3" d="M0.4,14.8c0.2,0,0.2,0.1,0.3,0.2c0,0.1,0,0.2-0.2,0.2c-0.1,0-0.2-0.1-0.3-0.2
		C0.2,14.9,0.2,14.8,0.4,14.8z M0.4,15.1c0.1,0,0.2-0.1,0.1-0.2c0-0.1-0.1-0.1-0.2-0.1c-0.1,0-0.2,0.1-0.1,0.2
		C0.2,15.1,0.3,15.1,0.4,15.1z"/>
	<path id="XMLID_24_" class="st3" d="M0.1,14.7l0.2-0.1c0,0,0.1,0,0.1,0l0,0c0,0-0.1,0-0.1,0l-0.2,0l0-0.1l0.2-0.1
		c0.1,0,0.1,0,0.1-0.1l0,0c0,0-0.1,0-0.1,0l-0.2,0l0-0.1l0.5,0.1l0,0.1l-0.2,0.1c0,0-0.1,0-0.1,0.1l0,0c0.1,0,0.1,0,0.1,0l0.2,0
		l0,0.1L0.1,14.7L0.1,14.7z"/>
	<path id="XMLID_21_" class="st3" d="M0.3,14c0.1,0,0.1-0.1,0.1-0.2c0-0.1,0-0.1,0-0.1l0.1,0c0,0,0,0.1,0,0.1
		C0.5,13.9,0.4,14,0.3,14C0.1,14,0,14,0,13.8c0-0.1,0.1-0.2,0.2-0.2c0,0,0,0,0,0L0.3,14z M0.2,13.7c-0.1,0-0.1,0-0.1,0.1
		c0,0.1,0.1,0.1,0.1,0.1L0.2,13.7z"/>
	<path id="XMLID_19_" class="st3" d="M0.2,13.5c-0.1,0-0.1,0-0.1,0l0-0.1L0.2,13.5L0.2,13.5C0,13.4,0,13.4,0,13.3c0,0,0,0,0,0l0.1,0
		c0,0,0,0,0,0C0.1,13.4,0.1,13.4,0.2,13.5C0.2,13.5,0.2,13.5,0.2,13.5l0.3-0.1l0,0.1L0.2,13.5z"/>
</g>
<g id="XMLID_3_">
	<path id="XMLID_15_" class="st4" d="M46.6,1.6c2.4,0,4.2,0.7,5.6,2c1.4,1.3,2.1,3.1,2.1,5.3c0,2.3-0.7,4.1-2.2,5.3
		c-1.4,1.2-3.5,1.8-6.3,1.8H32.1v8.8h-3.8V1.6H46.6z M46,12.5c3,0,4.4-1.2,4.4-3.6c0-2.6-1.6-3.8-4.7-3.8H32.1v7.4H46z"/>
	<path id="XMLID_12_" class="st4" d="M79.7,12.6c0,3.8-1.6,6.9-4.7,9.2c-2.7,2-6.1,3.1-10.2,3.1c-4.1,0-7.5-1-10.2-3.1
		c-3.1-2.3-4.7-5.4-4.7-9.2c0-3.7,1.6-6.7,4.7-9.1c2.8-2.1,6.2-3.1,10.2-3.1c4,0,7.4,1,10.1,3.1C78.1,5.8,79.7,8.9,79.7,12.6z
		 M75.7,12.6c0-2.7-1.1-4.9-3.4-6.6c-2-1.4-4.4-2.2-7.4-2.2c-3.2,0-5.8,0.8-7.9,2.5c-2,1.6-3,3.7-3,6.3c0,2.6,1,4.7,3,6.3
		c2,1.6,4.6,2.4,7.9,2.4c3.3,0,5.9-0.8,7.9-2.4C74.7,17.3,75.7,15.2,75.7,12.6z"/>
	<path id="XMLID_9_" class="st4" d="M90.4,1.6c4,0,7.2,1.1,9.6,3.2c2.4,2.1,3.5,5,3.5,8.6c0,3.3-1.2,6-3.7,8.2
		c-2.3,2-5.2,3.1-8.6,3.1H75.8V1.6H90.4z M91.5,21.3c2.3,0,4.2-0.7,5.7-2.2c1.5-1.5,2.2-3.4,2.2-5.7c0-2.5-0.8-4.5-2.4-6
		c-1.6-1.5-3.7-2.3-6.2-2.3H79.6v16.2H91.5z"/>
	<path id="XMLID_7_" class="st4" d="M123.6,24.7H99.4V1.6h24.2v3.4h-20.4V11h13.5v3.4h-13.5v6.8h20.4V24.7z"/>
	<path id="XMLID_4_" class="st4" d="M146,24.7h-4.5l-6.3-8.8h-11.7v8.8h-3.8V1.6H138c2.4,0,4.3,0.7,5.7,2c1.4,1.3,2.1,3.1,2.1,5.3
		c0,2-0.6,3.5-1.7,4.7c-1,1.1-2.5,1.8-4.3,2.1L146,24.7z M137.4,12.5c3,0,4.4-1.2,4.4-3.6c0-2.6-1.6-3.8-4.8-3.8h-13.5v7.4H137.4z"
		/>
</g>
</svg>
