<?xml version="1.0" encoding="utf-8"?>
<!-- Generator: Adobe Illustrator 16.0.0, SVG Export Plug-In . SVG Version: 6.00 Build 0)  -->
<!DOCTYPE svg PUBLIC "-//W3C//DTD SVG 1.1//EN" "http://www.w3.org/Graphics/SVG/1.1/DTD/svg11.dtd">
<svg version="1.1" id="Capa_1" xmlns="http://www.w3.org/2000/svg" xmlns:xlink="http://www.w3.org/1999/xlink" x="0px" y="0px"
	 width="118px" height="25px" viewBox="0 0 118 25" enable-background="new 0 0 118 25" xml:space="preserve">
<path id="XMLID_15_" fill="#95B3B1" d="M18.6,1.6c2.4,0,4.2,0.7,5.6,2c1.4,1.3,2.1,3.1,2.1,5.3c0,2.3-0.7,4.1-2.2,5.299
	C22.7,15.4,20.6,16,17.8,16H4.1v8.801H0.3V1.6H18.6z M18,12.5c3,0,4.4-1.2,4.4-3.6c0-2.6-1.6-3.8-4.7-3.8H4.1v7.4H18z"/>
<path id="XMLID_12_" opacity="0.9" fill="#397A7B" d="M51.7,12.6c0,3.8-1.6,6.9-4.7,9.201c-2.7,2-6.1,3.1-10.2,3.1
	c-4.1,0-7.5-1-10.2-3.1c-3.1-2.301-4.7-5.4-4.7-9.201c0-3.7,1.6-6.7,4.7-9.1c2.8-2.1,6.2-3.1,10.2-3.1s7.4,1,10.1,3.1
	C50.1,5.8,51.7,8.9,51.7,12.6z M47.7,12.6c0-2.7-1.1-4.9-3.4-6.6c-2-1.4-4.4-2.2-7.4-2.2c-3.2,0-5.8,0.8-7.9,2.5c-2,1.6-3,3.7-3,6.3
	c0,2.599,1,4.701,3,6.3s4.6,2.4,7.9,2.4c3.3,0,5.9-0.801,7.9-2.4C46.7,17.301,47.7,15.199,47.7,12.6z"/>
<path id="XMLID_9_" opacity="0.9" fill="#37637C" d="M62.4,1.6c4,0,7.199,1.1,9.6,3.2c2.4,2.1,3.5,5,3.5,8.6
	c0,3.299-1.2,6-3.7,8.199c-2.3,2-5.2,3.1-8.6,3.1H47.8V1.6H62.4z M63.5,21.301c2.3,0,4.2-0.701,5.7-2.201s2.2-3.4,2.2-5.699
	c0-2.5-0.801-4.5-2.4-6s-3.7-2.3-6.2-2.3H51.6v16.201H63.5z"/>
<polygon id="XMLID_7_" opacity="0.9" fill="#3E3C79" points="95.6,24.699 71.4,24.699 71.4,1.6 95.6,1.6 95.6,5 75.2,5 75.2,11 
	88.7,11 88.7,14.4 75.2,14.4 75.2,21.199 95.6,21.199 "/>
<path id="XMLID_4_" opacity="0.9" fill="#2E355A" d="M118,24.699h-4.5l-6.3-8.799H95.5v8.799h-3.8V1.6H110c2.4,0,4.3,0.7,5.7,2
	c1.399,1.3,2.1,3.1,2.1,5.3c0,2-0.6,3.5-1.7,4.7c-1,1.1-2.5,1.801-4.3,2.1L118,24.699z M109.4,12.5c3,0,4.399-1.2,4.399-3.6
	c0-2.6-1.6-3.8-4.8-3.8H95.5v7.4H109.4z"/>
</svg>
