<svg xmlns="http://www.w3.org/2000/svg" viewBox="0 0 155.8485 44.5669">
  <defs>
    <style>
      .cls-1 {
        fill: #505050;
      }
    </style>
  </defs>
  <title>Recurso 7</title>
  <g id="Capa_2" data-name="Capa 2">
    <g id="Capa_1-2" data-name="Capa 1">
      <g>
        <path class="cls-1" d="M27.8068,16.127l-5.85-2.9529L14.0741,9.1908h0l-.3414.1738L.346,16.127l-.1567.0807L0,16.3024v16.321l13.7327,6.9377.3429.1738.346-.1738,13.3867-6.7624.3445-.1753V16.3008ZM13.0872,37.21,1.7364,31.5015V18.7277l11.3493,5.7352V37.21Zm0-15.227L2.8319,16.8l10.2553-5.1393ZM15.1029,37.21V26.9813l10.1219,5.1145ZM26.2706,17.6229v12.71L15.0532,24.6677V11.655l5.9105,2.9871L25.9106,17.14l.3274.1645.0326.0171Z"/>
        <g>
          <path class="cls-1" d="M53.854,20.1118l-2.0576-1.8745a6.9694,6.9694,0,0,1-3.5271.8565,7.4,7.4,0,0,1-2.9855-.5819,6.4826,6.4826,0,0,1-2.2609-1.6091,7.0589,7.0589,0,0,1-1.4152-2.416,8.77,8.77,0,0,1-.49-2.9545,9.08,9.08,0,0,1,.49-3.015A7.257,7.257,0,0,1,43.023,6.061a6.3767,6.3767,0,0,1,2.2609-1.6293,7.95,7.95,0,0,1,5.971,0A6.4655,6.4655,0,0,1,53.5281,6.061a7.0576,7.0576,0,0,1,1.4152,2.4564,9.24,9.24,0,0,1,.4795,3.015,8.7274,8.7274,0,0,1-.4872,2.9452A7.3375,7.3375,0,0,1,53.53,16.892l1.8155,1.651Zm-4.1788-6.7438,1.651,1.5083a5.6035,5.6035,0,0,0,.8969-3.3424,7.8058,7.8058,0,0,0-.225-1.8946,5.0011,5.0011,0,0,0-.6936-1.589,3.4115,3.4115,0,0,0-1.2336-1.1017,4.2018,4.2018,0,0,0-3.6062,0A3.3975,3.3975,0,0,0,45.2311,8.05a4.9241,4.9241,0,0,0-.6905,1.589,7.6558,7.6558,0,0,0-.225,1.8946,7.1362,7.1362,0,0,0,.225,1.8248,4.8135,4.8135,0,0,0,.7029,1.5595,3.395,3.395,0,0,0,1.2336,1.0893,3.78,3.78,0,0,0,1.7907.3972c.34,0,.6145-.0093.8271-.031a.7339.7339,0,0,0,.4578-.1722l-1.3671-1.2429Z"/>
          <path class="cls-1" d="M69.9531,13.2455a5.626,5.626,0,0,1-1.6215,4.3712,6.5835,6.5835,0,0,1-4.5946,1.4772,6.5621,6.5621,0,0,1-4.5853-1.4679,5.6348,5.6348,0,0,1-1.6091-4.3805V4.1974h3.1981v9.0481a6.2752,6.2752,0,0,0,.1117,1.2228,2.4875,2.4875,0,0,0,.4391.9884,2.172,2.172,0,0,0,.9279.6921,3.8953,3.8953,0,0,0,1.5191.2545,3.0548,3.0548,0,0,0,2.3431-.7433,3.5536,3.5536,0,0,0,.6734-2.416V4.1974h3.2v9.0481Z"/>
          <path class="cls-1" d="M72.7058,4.1974h3.1981v14.55H72.7058Z"/>
          <path class="cls-1" d="M78.7156,4.1974H89.5994V6.8865H81.9168v3.119h7.0495v2.4859H81.9168v3.5674h7.847v2.6891H78.7172V4.1974Zm5.6855-1.305H82.3824L84.3406,0h3.2Z"/>
          <path class="cls-1" d="M91.9208,4.1974H95.1l6.0734,9.7619h.0419V4.1974H104.21v14.55h-3.2l-6.0517-9.74h-.0419v9.74H91.9192V4.1974Z"/>
          <path class="cls-1" d="M112.6859,4.1974H123.57V6.8865h-7.6826v3.119h7.0495v2.4859h-7.0495v3.5674h7.847v2.6891H112.6874V4.1974Z"/>
          <path class="cls-1" d="M128.0727,13.9174a2.3477,2.3477,0,0,0,.9062,2.0281,3.8159,3.8159,0,0,0,2.3121.6626,5.6449,5.6449,0,0,0,.9481-.0822,3.5657,3.5657,0,0,0,.9155-.2855,1.795,1.795,0,0,0,.7029-.56,1.4346,1.4346,0,0,0,.2669-.886,1.2826,1.2826,0,0,0-.2669-.8255,2.12,2.12,0,0,0-.7107-.571A5.5633,5.5633,0,0,0,132.1677,13q-.5284-.1629-1.4245-.3662c-.3941-.1086-.706-.1909-.9388-.2452a17.7206,17.7206,0,0,1-1.6914-.5493,5.3914,5.3914,0,0,1-1.3329-.7433,3.3325,3.3325,0,0,1-.9574-1.1607,3.6663,3.6663,0,0,1-.3569-1.6821,3.9476,3.9476,0,0,1,.4578-1.9148,4.07,4.07,0,0,1,1.246-1.3857,5.76,5.76,0,0,1,1.7519-.8255,7.2363,7.2363,0,0,1,1.9846-.2762,9.1626,9.1626,0,0,1,2.2329.2653,5.4977,5.4977,0,0,1,1.8543.8364,4.0962,4.0962,0,0,1,1.2724,1.4664,4.5229,4.5229,0,0,1,.47,2.1181h-3.1a1.9989,1.9989,0,0,0-.824-1.7115,3.7605,3.7605,0,0,0-2.0483-.4888,2.8674,2.8674,0,0,0-1.5486.4081,1.3683,1.3683,0,0,0-.6517,1.2429,1.2487,1.2487,0,0,0,.1629.6828,1.3419,1.3419,0,0,0,.5695.4484,8.2341,8.2341,0,0,0,1.0815.3972q.6727.2048,2.2.5912a1.7515,1.7515,0,0,1,.3243.0822.385.385,0,0,0,.1241.02,13.6547,13.6547,0,0,1,1.3453.4081,5.9979,5.9979,0,0,1,1.2817.6828,3.6456,3.6456,0,0,1,1.57,3.1283,4.1475,4.1475,0,0,1-1.5905,3.3734,6.8832,6.8832,0,0,1-4.4612,1.2941,8.8755,8.8755,0,0,1-2.3555-.3057,5.9465,5.9465,0,0,1-1.9753-.9465,4.6,4.6,0,0,1-1.3671-1.634,5.0517,5.0517,0,0,1-.4965-2.2934Z"/>
          <path class="cls-1" d="M53.854,44.5669l-2.0576-1.8745a6.9694,6.9694,0,0,1-3.5271.8565,7.4,7.4,0,0,1-2.9855-.5819A6.4825,6.4825,0,0,1,43.023,41.358a7.059,7.059,0,0,1-1.4152-2.416,8.77,8.77,0,0,1-.49-2.9545,9.08,9.08,0,0,1,.49-3.015,7.257,7.257,0,0,1,1.4152-2.4564,6.3766,6.3766,0,0,1,2.2609-1.6293,7.95,7.95,0,0,1,5.971,0,6.4655,6.4655,0,0,1,2.2733,1.6293,7.0576,7.0576,0,0,1,1.4152,2.4564,9.24,9.24,0,0,1,.4795,3.015,8.7274,8.7274,0,0,1-.4872,2.9452A7.3375,7.3375,0,0,1,53.53,41.3471l1.8155,1.651Zm-4.1788-6.7453,1.651,1.5083a5.6035,5.6035,0,0,0,.8969-3.3424,7.8058,7.8058,0,0,0-.225-1.8947,5.0011,5.0011,0,0,0-.6936-1.589,3.4115,3.4115,0,0,0-1.2336-1.1017,4.2018,4.2018,0,0,0-3.6062,0,3.3975,3.3975,0,0,0-1.2336,1.1017,4.924,4.924,0,0,0-.6905,1.589,7.6558,7.6558,0,0,0-.225,1.8947,7.1362,7.1362,0,0,0,.225,1.8248,4.8135,4.8135,0,0,0,.7029,1.5595,3.395,3.395,0,0,0,1.2336,1.0893,3.78,3.78,0,0,0,1.7907.3972c.34,0,.6145-.0093.8271-.031a.7339.7339,0,0,0,.4578-.1722l-1.3671-1.2429Z"/>
          <path class="cls-1" d="M69.9531,37.699A5.6259,5.6259,0,0,1,68.3315,42.07a6.5835,6.5835,0,0,1-4.5946,1.4772A6.5621,6.5621,0,0,1,59.1516,42.08a5.6348,5.6348,0,0,1-1.6091-4.3805V28.651h3.1981V37.699a6.2752,6.2752,0,0,0,.1117,1.2228,2.4875,2.4875,0,0,0,.4391.9884,2.172,2.172,0,0,0,.9279.6921,3.8952,3.8952,0,0,0,1.5191.2545,3.0548,3.0548,0,0,0,2.3431-.7433,3.5536,3.5536,0,0,0,.6734-2.416V28.651h3.2V37.699Z"/>
          <path class="cls-1" d="M72.7058,28.651h3.1981v14.55H72.7058Z"/>
          <path class="cls-1" d="M78.7156,28.651H89.5994V31.34H81.9168v3.119h7.0495v2.4859H81.9168v3.5674h7.847v2.6891H78.7172V28.651Zm5.6855-1.305H82.3824l1.9583-2.8924h3.2Z"/>
          <path class="cls-1" d="M91.9208,28.651H95.1l6.0734,9.7619h.0419V28.651H104.21v14.55h-3.2l-6.0517-9.74h-.0419v9.74H91.9192V28.651Z"/>
          <path class="cls-1" d="M126.5427,43.2014h-3.1764l-2.4672-9.9046h-.0419l-2.4238,9.9046h-3.24l-3.8514-14.55h3.2l2.3028,9.9046h.0388l2.5277-9.9046h2.9948l2.489,10.0257h.0388l2.385-10.0257h3.1391Z"/>
          <path class="cls-1" d="M131.9257,28.651h3.1981v14.55h-3.1981Z"/>
          <path class="cls-1" d="M137.9355,28.651h3.2V34.684l5.6855-6.0331h3.9941l-5.6855,5.746,6.2348,8.8045h-4.0127l-4.3821-6.542-1.8341,1.8543v4.6877h-3.2Z"/>
          <path class="cls-1" d="M152.6489,28.651h3.2v14.55h-3.2Z"/>
        </g>
      </g>
    </g>
  </g>
</svg>
