<?xml version="1.0" encoding="utf-8"?>
<!-- Generator: Adobe Illustrator 16.0.0, SVG Export Plug-In . SVG Version: 6.00 Build 0)  -->
<!DOCTYPE svg PUBLIC "-//W3C//DTD SVG 1.1//EN" "http://www.w3.org/Graphics/SVG/1.1/DTD/svg11.dtd">
<svg version="1.1" id="Layer_1" xmlns="http://www.w3.org/2000/svg" xmlns:xlink="http://www.w3.org/1999/xlink" x="0px" y="0px"
	 width="101.699px" height="29.73px" viewBox="0 -2.439 101.699 29.73" enable-background="new 0 -2.439 101.699 29.73"
	 xml:space="preserve">
<g>
	<g>
		<path fill="#FFFFFF" d="M18.551,8.459l-3.77-1.903l-5.08-2.567l0,0L9.481,4.101L0.854,8.459L0.753,8.511L0.631,8.572v0.272v10.246
			l8.85,4.471l0.221,0.112l0.223-0.112l8.627-4.358l0.222-0.113V8.845V8.708V8.572V8.571L18.551,8.459z M9.065,22.046L1.75,18.367
			v-8.232l7.314,3.696V22.046z M9.065,12.233l-6.609-3.34l6.609-3.312V12.233z M10.364,22.046v-6.592l6.523,3.296L10.364,22.046z
			 M17.561,9.423v8.191l-7.229-3.651v-0.888v-0.214v-0.021v-0.192v-0.001v-7.07l3.809,1.925l3.188,1.61l0.211,0.106l0.021,0.011
			V9.423z"/>
	</g>
	<g>
		<path fill="#FFFFFF" d="M35.337,11.027l-1.326-1.208c-0.641,0.367-1.396,0.552-2.273,0.552c-0.709,0-1.35-0.125-1.924-0.375
			c-0.572-0.249-1.059-0.595-1.457-1.037s-0.703-0.961-0.912-1.557c-0.211-0.595-0.316-1.229-0.316-1.904
			c0-0.691,0.105-1.339,0.316-1.943c0.209-0.604,0.514-1.132,0.912-1.583c0.398-0.45,0.885-0.801,1.457-1.05
			c0.574-0.25,1.215-0.375,1.924-0.375s1.352,0.125,1.924,0.375c0.574,0.249,1.062,0.6,1.465,1.05
			c0.402,0.451,0.707,0.979,0.912,1.583c0.207,0.604,0.309,1.252,0.309,1.943c0,0.675-0.104,1.307-0.314,1.898
			c-0.211,0.591-0.512,1.109-0.906,1.556l1.17,1.064L35.337,11.027z M32.644,6.681l1.064,0.972c0.385-0.534,0.578-1.252,0.578-2.154
			c0-0.429-0.049-0.836-0.145-1.221c-0.098-0.386-0.246-0.727-0.447-1.024s-0.467-0.534-0.795-0.71
			c-0.328-0.175-0.715-0.262-1.162-0.262c-0.445,0-0.834,0.087-1.162,0.262c-0.328,0.176-0.594,0.412-0.795,0.71
			s-0.35,0.639-0.445,1.024c-0.098,0.385-0.145,0.792-0.145,1.221c0,0.412,0.047,0.804,0.145,1.176
			c0.096,0.372,0.246,0.707,0.453,1.005c0.205,0.298,0.471,0.531,0.795,0.702c0.322,0.171,0.709,0.256,1.154,0.256
			c0.219,0,0.396-0.006,0.533-0.02c0.135-0.013,0.234-0.05,0.295-0.111l-0.881-0.801L32.644,6.681z"/>
		<path fill="#FFFFFF" d="M45.712,6.602c0,1.243-0.35,2.183-1.045,2.817s-1.684,0.952-2.961,0.952c-1.279,0-2.264-0.315-2.955-0.946
			c-0.691-0.63-1.037-1.571-1.037-2.823V0.771h2.061v5.831c0,0.289,0.025,0.552,0.072,0.788c0.049,0.236,0.143,0.448,0.283,0.637
			s0.34,0.337,0.598,0.446c0.258,0.11,0.584,0.164,0.979,0.164c0.717,0,1.221-0.159,1.51-0.479c0.289-0.32,0.434-0.839,0.434-1.557
			V0.771h2.062V6.602z"/>
		<path fill="#FFFFFF" d="M47.486,0.771h2.061v9.377h-2.061V0.771z"/>
		<path fill="#FFFFFF" d="M51.359,0.771h7.014v1.733h-4.951v2.01h4.543v1.602h-4.543v2.299h5.057v1.733h-7.119V0.771z M55.023-0.07
			h-1.301l1.262-1.864h2.062L55.023-0.07z"/>
		<path fill="#FFFFFF" d="M59.869,0.771h2.049l3.914,6.291h0.027V0.771h1.93v9.377h-2.062l-3.9-6.277H61.8v6.277h-1.932V0.771z"/>
		<path fill="#FFFFFF" d="M73.251,0.771h7.014v1.733h-4.951v2.01h4.543v1.602h-4.543v2.299h5.057v1.733h-7.119V0.771z"/>
		<path fill="#FFFFFF" d="M83.167,7.035c0,0.587,0.195,1.022,0.584,1.307s0.887,0.427,1.49,0.427c0.201,0,0.406-0.018,0.611-0.053
			s0.402-0.096,0.59-0.184c0.189-0.088,0.34-0.208,0.453-0.361c0.115-0.153,0.172-0.344,0.172-0.571c0-0.21-0.057-0.388-0.172-0.532
			C86.783,6.923,86.63,6.801,86.437,6.7s-0.402-0.187-0.631-0.256c-0.227-0.07-0.533-0.149-0.918-0.236
			c-0.254-0.07-0.455-0.123-0.605-0.158c-0.41-0.113-0.773-0.231-1.09-0.354c-0.314-0.122-0.602-0.282-0.859-0.479
			s-0.465-0.446-0.617-0.748c-0.154-0.303-0.23-0.663-0.23-1.084c0-0.464,0.1-0.875,0.295-1.234
			c0.197-0.358,0.465-0.656,0.803-0.893c0.336-0.236,0.713-0.414,1.129-0.532s0.842-0.178,1.279-0.178
			c0.508,0,0.988,0.058,1.439,0.171c0.451,0.114,0.85,0.294,1.195,0.539s0.619,0.56,0.82,0.945c0.201,0.385,0.303,0.841,0.303,1.365
			h-1.998c-0.025-0.524-0.203-0.893-0.531-1.103s-0.768-0.315-1.32-0.315c-0.385,0-0.717,0.088-0.998,0.263
			c-0.279,0.175-0.42,0.442-0.42,0.801c0,0.185,0.035,0.331,0.105,0.44s0.193,0.206,0.367,0.289
			c0.176,0.083,0.408,0.168,0.697,0.256s0.762,0.215,1.418,0.381c0.025,0,0.096,0.018,0.209,0.053
			c0.027,0.009,0.053,0.013,0.08,0.013c0.314,0.079,0.604,0.167,0.867,0.263c0.262,0.097,0.537,0.243,0.826,0.44
			c0.289,0.196,0.529,0.464,0.723,0.801s0.289,0.742,0.289,1.215c0,0.893-0.342,1.617-1.025,2.174
			c-0.682,0.556-1.641,0.834-2.875,0.834c-0.535,0-1.039-0.066-1.518-0.197c-0.477-0.132-0.902-0.335-1.273-0.61
			C82,9.287,81.707,8.938,81.492,8.513c-0.213-0.425-0.32-0.917-0.32-1.478H83.167z"/>
		<path fill="#FFFFFF" d="M35.337,26.787l-1.326-1.208c-0.641,0.367-1.396,0.552-2.273,0.552c-0.709,0-1.35-0.125-1.924-0.375
			c-0.572-0.249-1.059-0.595-1.457-1.037s-0.703-0.961-0.912-1.557c-0.211-0.595-0.316-1.229-0.316-1.904
			c0-0.691,0.105-1.339,0.316-1.943c0.209-0.604,0.514-1.132,0.912-1.583c0.398-0.45,0.885-0.801,1.457-1.05
			c0.574-0.25,1.215-0.375,1.924-0.375s1.352,0.125,1.924,0.375c0.574,0.249,1.062,0.6,1.465,1.05
			c0.402,0.451,0.707,0.979,0.912,1.583c0.207,0.604,0.309,1.252,0.309,1.943c0,0.675-0.104,1.307-0.314,1.898
			c-0.211,0.591-0.512,1.109-0.906,1.556l1.17,1.064L35.337,26.787z M32.644,22.44l1.064,0.972c0.385-0.534,0.578-1.252,0.578-2.154
			c0-0.429-0.049-0.836-0.145-1.221c-0.098-0.386-0.246-0.727-0.447-1.024s-0.467-0.534-0.795-0.71
			c-0.328-0.175-0.715-0.262-1.162-0.262c-0.445,0-0.834,0.087-1.162,0.262c-0.328,0.176-0.594,0.412-0.795,0.71
			s-0.35,0.639-0.445,1.024c-0.098,0.385-0.145,0.792-0.145,1.221c0,0.412,0.047,0.804,0.145,1.176
			c0.096,0.372,0.246,0.707,0.453,1.005c0.205,0.298,0.471,0.531,0.795,0.702c0.322,0.171,0.709,0.256,1.154,0.256
			c0.219,0,0.396-0.006,0.533-0.02c0.135-0.013,0.234-0.05,0.295-0.111l-0.881-0.801L32.644,22.44z"/>
		<path fill="#FFFFFF" d="M45.712,22.361c0,1.243-0.35,2.183-1.045,2.817s-1.684,0.952-2.961,0.952
			c-1.279,0-2.264-0.315-2.955-0.946c-0.691-0.63-1.037-1.571-1.037-2.823V16.53h2.061v5.831c0,0.289,0.025,0.552,0.072,0.788
			c0.049,0.236,0.143,0.448,0.283,0.637s0.34,0.337,0.598,0.446c0.258,0.11,0.584,0.164,0.979,0.164c0.717,0,1.221-0.159,1.51-0.479
			c0.289-0.32,0.434-0.839,0.434-1.557V16.53h2.062V22.361z"/>
		<path fill="#FFFFFF" d="M47.486,16.53h2.061v9.377h-2.061V16.53z"/>
		<path fill="#FFFFFF" d="M51.359,16.53h7.014v1.733h-4.951v2.01h4.543v1.602h-4.543v2.299h5.057v1.733h-7.119V16.53z
			 M55.023,15.689h-1.301l1.262-1.864h2.062L55.023,15.689z"/>
		<path fill="#FFFFFF" d="M59.869,16.53h2.049l3.914,6.291h0.027V16.53h1.93v9.377h-2.062l-3.9-6.277H61.8v6.277h-1.932V16.53z"/>
		<path fill="#FFFFFF" d="M82.181,25.907h-2.047l-1.59-6.383h-0.027l-1.562,6.383h-2.088l-2.482-9.377h2.062l1.484,6.383h0.025
			l1.629-6.383h1.93l1.604,6.461h0.025l1.537-6.461h2.023L82.181,25.907z"/>
		<path fill="#FFFFFF" d="M85.65,16.53h2.061v9.377H85.65V16.53z"/>
		<path fill="#FFFFFF" d="M89.523,16.53h2.062v3.888l3.664-3.888h2.574l-3.664,3.703l4.018,5.674h-2.586l-2.824-4.216l-1.182,1.195
			v3.021h-2.062V16.53z"/>
		<path fill="#FFFFFF" d="M99.005,16.53h2.062v9.377h-2.062V16.53z"/>
	</g>
</g>
</svg>
