<?xml version="1.0" encoding="utf-8"?>
<!-- Generator: Adobe Illustrator 16.0.0, SVG Export Plug-In . SVG Version: 6.00 Build 0)  -->
<!DOCTYPE svg PUBLIC "-//W3C//DTD SVG 1.1//EN" "http://www.w3.org/Graphics/SVG/1.1/DTD/svg11.dtd">
<svg version="1.1" id="Layer_1" xmlns="http://www.w3.org/2000/svg" xmlns:xlink="http://www.w3.org/1999/xlink" x="0px" y="0px"
	 width="212.913px" height="30.708px" viewBox="0 0 212.913 30.708" enable-background="new 0 0 212.913 30.708"
	 xml:space="preserve" fill="#fff">
<g>
	<g>
		<g>
			<path d="M45.132,6.919h8.23c0.671,0,1.285,0.106,1.84,0.321c0.555,0.212,1.028,0.516,1.422,0.907
				c0.391,0.393,0.69,0.841,0.897,1.347c0.207,0.507,0.31,1.053,0.31,1.636c0,0.927-0.196,1.714-0.586,2.362
				c-0.395,0.648-1.002,1.137-1.829,1.466V15c0.753,0.2,1.301,0.617,1.634,1.251c0.335,0.635,0.531,1.409,0.588,2.319
				c0,0.058,0.006,0.229,0.022,0.514c0.042,0.727,0.102,1.347,0.181,1.86c0.078,0.513,0.225,0.927,0.439,1.239h-3.357
				c-0.127-0.284-0.216-0.611-0.267-0.983c-0.051-0.37-0.095-0.848-0.14-1.433c-0.041-0.54-0.084-0.954-0.127-1.24
				c-0.115-0.824-0.359-1.418-0.738-1.773c-0.378-0.356-0.979-0.534-1.806-0.534h-3.358v5.964h-3.356V6.919z M48.488,13.825h3.679
				c0.769,0,1.345-0.175,1.729-0.524c0.386-0.348,0.579-0.901,0.579-1.656c0-0.727-0.192-1.261-0.579-1.604
				c-0.385-0.342-0.96-0.512-1.729-0.512h-3.679V13.825z"/>
			<path d="M60.567,6.919h3.357v15.264h-3.357V6.919z"/>
			<path d="M66.875,6.919h3.335l6.37,10.24h0.043V6.919h3.142v15.264h-3.355L70.06,11.965h-0.043v10.218h-3.141V6.919z"/>
			<path d="M82.716,6.919h6.585c2.066,0,3.739,0.646,5.014,1.935c1.275,1.291,1.914,3.16,1.914,5.612
				c0,1.127-0.143,2.154-0.429,3.088c-0.283,0.935-0.719,1.751-1.304,2.448c-0.585,0.699-1.31,1.237-2.182,1.615
				c-0.868,0.377-1.873,0.565-3.014,0.565h-6.585V6.919z M86.074,19.362h2.992c0.515,0,0.995-0.083,1.443-0.247
				c0.449-0.162,0.853-0.427,1.208-0.789c0.356-0.364,0.639-0.841,0.846-1.433c0.205-0.592,0.309-1.294,0.309-2.106
				c0-1.639-0.334-2.89-1.005-3.752c-0.671-0.862-1.803-1.294-3.399-1.294h-2.394V19.362z"/>
			<path d="M98.56,6.919h11.416v2.821h-8.06v3.272h7.397v2.606h-7.397v3.742h8.23v2.821H98.56V6.919z"/>
			<path d="M122.589,12.05c-0.1-0.756-0.469-1.391-1.111-1.902c-0.643-0.514-1.383-0.77-2.223-0.77
				c-0.729,0-1.357,0.142-1.893,0.426c-0.535,0.287-0.967,0.671-1.293,1.156c-0.33,0.484-0.572,1.04-0.729,1.668
				c-0.156,0.626-0.234,1.289-0.234,1.986c0,0.671,0.078,1.309,0.234,1.915c0.156,0.605,0.404,1.15,0.738,1.635
				c0.336,0.485,0.766,0.865,1.293,1.144c0.529,0.278,1.154,0.416,1.883,0.416c0.996,0,1.791-0.31,2.383-0.931
				c0.592-0.619,0.951-1.449,1.08-2.488h3.25c-0.086,0.939-0.309,1.795-0.664,2.565c-0.355,0.769-0.83,1.428-1.422,1.977
				c-0.592,0.55-1.279,0.969-2.062,1.262s-1.639,0.438-2.564,0.438c-1.156,0-2.199-0.203-3.133-0.61
				c-0.934-0.404-1.725-0.969-2.373-1.688c-0.65-0.72-1.145-1.564-1.486-2.534c-0.344-0.968-0.514-2.001-0.514-3.1
				c0-1.125,0.17-2.18,0.514-3.163c0.342-0.984,0.836-1.843,1.486-2.577c0.648-0.733,1.439-1.304,2.373-1.709
				c0.934-0.407,1.977-0.61,3.133-0.61c0.84,0,1.637,0.122,2.395,0.364c0.754,0.243,1.428,0.599,2.02,1.068
				c0.59,0.471,1.076,1.047,1.453,1.732c0.377,0.684,0.615,1.461,0.717,2.33H122.589z"/>
			<path d="M141.21,16.412c0,2.023-0.566,3.553-1.697,4.586c-1.137,1.033-2.742,1.55-4.822,1.55c-2.082,0-3.686-0.514-4.811-1.54
				c-1.127-1.025-1.689-2.558-1.689-4.596V6.919h3.355v9.492c0,0.471,0.039,0.897,0.119,1.283c0.076,0.384,0.232,0.729,0.459,1.036
				s0.551,0.548,0.973,0.727c0.422,0.18,0.953,0.267,1.594,0.267c1.168,0,1.988-0.259,2.459-0.778
				c0.469-0.521,0.705-1.365,0.705-2.534V6.919h3.355V16.412z"/>
			<path d="M144.097,6.919h11.418v2.821h-8.061v3.272h7.395v2.606h-7.395v3.742h8.23v2.821h-11.588V6.919z"/>
			<path d="M157.95,6.919h3.334l6.373,10.24h0.043V6.919h3.143v15.264h-3.357l-6.35-10.218h-0.041v10.218h-3.145V6.919z"/>
			<path d="M177.169,9.741h-4.574V6.919h12.508v2.821h-4.574v12.442h-3.359V9.741z"/>
			<path d="M189.442,6.919h3.441l5.709,15.264h-3.484l-1.154-3.398h-5.711l-1.195,3.398h-3.398L189.442,6.919z M189.122,16.283
				h3.955l-1.924-5.601h-0.043L189.122,16.283z"/>
			<path d="M202.206,17.117c0,0.955,0.316,1.665,0.951,2.127c0.635,0.463,1.443,0.695,2.426,0.695c0.33,0,0.66-0.028,0.994-0.086
				c0.336-0.057,0.656-0.156,0.963-0.299c0.305-0.144,0.553-0.339,0.738-0.588c0.184-0.25,0.277-0.56,0.277-0.931
				c0-0.341-0.094-0.631-0.277-0.866c-0.186-0.234-0.436-0.435-0.75-0.597c-0.312-0.164-0.656-0.305-1.025-0.418
				c-0.371-0.114-0.871-0.242-1.496-0.384c-0.414-0.115-0.742-0.2-0.982-0.258c-0.672-0.185-1.264-0.377-1.775-0.577
				c-0.514-0.198-0.98-0.459-1.4-0.78c-0.422-0.321-0.756-0.727-1.006-1.218c-0.248-0.493-0.373-1.079-0.373-1.765
				c0-0.755,0.16-1.425,0.48-2.01c0.322-0.583,0.754-1.068,1.305-1.452c0.549-0.385,1.16-0.675,1.838-0.867
				c0.676-0.192,1.373-0.289,2.084-0.289c0.828,0,1.607,0.094,2.342,0.278c0.734,0.186,1.383,0.479,1.945,0.878
				c0.562,0.398,1.008,0.91,1.336,1.538c0.328,0.626,0.492,1.369,0.492,2.223h-3.25c-0.043-0.854-0.33-1.453-0.865-1.795
				s-1.252-0.514-2.148-0.514c-0.627,0-1.17,0.144-1.625,0.428c-0.457,0.284-0.686,0.721-0.686,1.304
				c0,0.301,0.059,0.539,0.172,0.717s0.314,0.335,0.6,0.471c0.283,0.135,0.662,0.273,1.133,0.417
				c0.469,0.143,1.238,0.35,2.309,0.619c0.045,0,0.156,0.029,0.342,0.086c0.041,0.015,0.086,0.021,0.127,0.021
				c0.514,0.129,0.986,0.271,1.412,0.428c0.43,0.157,0.877,0.396,1.348,0.717c0.471,0.319,0.863,0.755,1.176,1.304
				c0.314,0.548,0.469,1.208,0.469,1.978c0,1.453-0.555,2.632-1.666,3.538c-1.113,0.905-2.674,1.357-4.684,1.357
				c-0.867,0-1.691-0.107-2.469-0.321s-1.467-0.545-2.072-0.993c-0.605-0.45-1.082-1.02-1.432-1.711
				c-0.352-0.69-0.525-1.493-0.525-2.405H202.206z"/>
		</g>
	</g>
	<g>
		<g>
			<path d="M2.16,10.533c0-5.028,4.09-9.117,9.119-9.117c1.059,0,2.049,0.236,2.992,0.573l1.138-0.684
				c-1.267-0.58-2.648-0.942-4.13-0.942c-5.609,0-10.17,4.562-10.17,10.17c0,3.183,1.49,6.002,3.79,7.862v-1.381
				C3.217,15.359,2.16,13.072,2.16,10.533z"/>
			<path d="M16.1,29.293c-4.895,0-8.869-3.886-9.079-8.728l-1.053-0.767c-0.014,0.125-0.038,0.247-0.038,0.376
				c0,5.607,4.562,10.169,10.169,10.169s10.17-4.562,10.17-10.169c0-0.066-0.016-0.129-0.021-0.193l-1.096,0.815
				C24.828,25.53,20.916,29.293,16.1,29.293z"/>
			<path d="M31.09,10.533c0-5.607-4.563-10.17-10.168-10.17c-1.481,0-2.865,0.362-4.128,0.942l1.137,0.684
				c0.944-0.337,1.933-0.573,2.992-0.573c5.027,0,9.116,4.089,9.116,9.117c0,2.539-1.056,4.826-2.736,6.479v1.381
				C29.602,16.535,31.09,13.715,31.09,10.533z"/>
		</g>
		<g>
			<g>
				<polygon points="15.658,25.354 5.988,18.532 5.988,8.862 15.658,15.173 				"/>
			</g>
			<g>
				<polygon points="26.19,18.532 16.52,25.354 16.52,15.173 26.19,8.862 				"/>
			</g>
			<g>
				<polygon points="26.19,8.011 16.168,14.234 6.147,7.913 16.1,2.011 				"/>
			</g>
		</g>
	</g>
</g>
</svg>
