<svg xmlns="http://www.w3.org/2000/svg" viewBox="0 0 190.4815 27.1034">
  <defs>
    <style>
      .cls-1 {
        fill: #505050;
      }
    </style>
  </defs>
  <title>mobileRecurso 6</title>
  <g id="Capa_2" data-name="Capa 2">
    <g id="Capa_1-2" data-name="Capa 1">
      <g>
        <g>
          <path class="cls-1" d="M39.799,5.927h7.44a4.5716,4.5716,0,0,1,1.6635.29,3.6488,3.6488,0,0,1,1.2856.82,3.6941,3.6941,0,0,1,.8109,1.2178,3.8768,3.8768,0,0,1,.28,1.479,4.0684,4.0684,0,0,1-.53,2.1354,3.2718,3.2718,0,0,1-1.6535,1.3253v.038a2.2277,2.2277,0,0,1,1.4772,1.131A5.155,5.155,0,0,1,51.105,16.46c0,.0524.0054.207.02.4647q.057.9859.1636,1.6815a2.6813,2.6813,0,0,0,.3969,1.12H48.6505a3.2522,3.2522,0,0,1-.2414-.8887c-.0461-.3345-.0859-.7666-.1266-1.2955q-.0556-.7323-.1148-1.121a2.6519,2.6519,0,0,0-.6672-1.6029,2.3232,2.3232,0,0,0-1.6327-.4828H42.8321v5.3918h-3.034V5.927ZM42.833,12.17h3.326a2.2573,2.2573,0,0,0,1.5631-.4737,1.9238,1.9238,0,0,0,.5234-1.4971,1.84,1.84,0,0,0-.5234-1.45,2.29,2.29,0,0,0-1.5631-.4629H42.833Z"/>
          <path class="cls-1" d="M53.753,5.927h3.0349V19.7264H53.753Z"/>
          <path class="cls-1" d="M59.4557,5.927h3.015L68.23,15.1844h.0389V5.927H71.109V19.7264H68.0759l-5.7407-9.2376h-.0389v9.2376h-2.84V5.927Z"/>
          <path class="cls-1" d="M73.7768,5.927H79.73a6.0965,6.0965,0,0,1,4.5329,1.7493,6.9205,6.9205,0,0,1,1.73,5.0735,9.4935,9.4935,0,0,1-.3878,2.7917,6.1882,6.1882,0,0,1-1.1789,2.2131,5.2516,5.2516,0,0,1-1.9726,1.46,6.7891,6.7891,0,0,1-2.7248.5108H73.7759V5.927ZM76.8126,17.176h2.7049a3.7623,3.7623,0,0,0,1.3045-.2233,2.903,2.903,0,0,0,1.0921-.7133,3.4485,3.4485,0,0,0,.7648-1.2955,5.83,5.83,0,0,0,.2793-1.9039A5.4351,5.4351,0,0,0,82.05,9.648a3.6637,3.6637,0,0,0-3.0729-1.17H76.8126Z"/>
          <path class="cls-1" d="M88.1006,5.927H98.4212v2.55H91.1346v2.9581h6.6873v2.356H91.1346v3.383h7.44v2.55H88.1006Z"/>
          <path class="cls-1" d="M109.824,10.5656a2.5708,2.5708,0,0,0-1.0044-1.72,3.1247,3.1247,0,0,0-2.01-.6961,3.5977,3.5977,0,0,0-1.7114.3851A3.2079,3.2079,0,0,0,103.93,9.58a4.6525,4.6525,0,0,0-.659,1.508,7.4074,7.4074,0,0,0-.2115,1.7954,6.9179,6.9179,0,0,0,.2115,1.7313,4.6174,4.6174,0,0,0,.6672,1.4781,3.2457,3.2457,0,0,0,1.1689,1.0342,3.6059,3.6059,0,0,0,1.7023.3761,2.8372,2.8372,0,0,0,2.1544-.8417,3.8345,3.8345,0,0,0,.9764-2.2493h2.9382a7.0333,7.0333,0,0,1-.6,2.3189,5.5476,5.5476,0,0,1-3.15,2.9282,6.5684,6.5684,0,0,1-2.318.396,7.0146,7.0146,0,0,1-2.8324-.5515,6.12,6.12,0,0,1-2.1453-1.526,6.6819,6.6819,0,0,1-1.3434-2.2909,8.306,8.306,0,0,1-.4647-2.8026,8.5988,8.5988,0,0,1,.4647-2.86,6.8727,6.8727,0,0,1,1.3434-2.33,6.02,6.02,0,0,1,2.1453-1.545,7.4347,7.4347,0,0,1,4.9976-.2224,5.7564,5.7564,0,0,1,1.8262.9655,5.1724,5.1724,0,0,1,1.3136,1.5658,5.6942,5.6942,0,0,1,.6482,2.1064Z"/>
          <path class="cls-1" d="M126.6583,14.5091a5.3376,5.3376,0,0,1-1.5342,4.146,7.4857,7.4857,0,0,1-8.7087.009,5.3381,5.3381,0,0,1-1.5269-4.155V5.927h3.0331v8.5812a5.7206,5.7206,0,0,0,.1076,1.16,2.3147,2.3147,0,0,0,.415.9366,2.06,2.06,0,0,0,.88.6572,3.6926,3.6926,0,0,0,1.4411.2414,2.9056,2.9056,0,0,0,2.2231-.7034,3.3758,3.3758,0,0,0,.6374-2.2909V5.927h3.0331v8.5821Z"/>
          <path class="cls-1" d="M129.2683,5.927h10.3224v2.55h-7.2876v2.9581h6.6855v2.356h-6.6855v3.383h7.44v2.55H129.2674V5.927Z"/>
          <path class="cls-1" d="M141.7921,5.927h3.0141l5.7615,9.2575h.0389V5.927h2.8414V19.7264h-3.0349l-5.7407-9.2376h-.0371v9.2376h-2.8432Z"/>
          <path class="cls-1" d="M159.167,8.4782h-4.1351V5.927H166.34v2.55h-4.1351V19.7255h-3.0367V8.4782Z"/>
          <path class="cls-1" d="M170.2624,5.927h3.1108l5.1612,13.7994h-3.15l-1.0433-3.072h-5.163l-1.08,3.072h-3.072Zm-.2893,8.4655h3.5755l-1.7394-5.0636H171.77Z"/>
          <path class="cls-1" d="M181.8017,15.1465a2.22,2.22,0,0,0,.86,1.9229,3.6268,3.6268,0,0,0,2.1932.6283,5.2319,5.2319,0,0,0,.8986-.0777,3.3923,3.3923,0,0,0,.8706-.27,1.736,1.736,0,0,0,.6672-.5316,1.381,1.381,0,0,0,.25-.8417,1.2393,1.2393,0,0,0-.25-.7829,2.0548,2.0548,0,0,0-.678-.54,5.38,5.38,0,0,0-.9266-.3779c-.3354-.1031-.7874-.2188-1.3525-.3472-.3743-.104-.6708-.1808-.8878-.2332a16.3447,16.3447,0,0,1-1.6047-.5216,5.0774,5.0774,0,0,1-1.2657-.7052,3.1627,3.1627,0,0,1-.9095-1.1011,3.5078,3.5078,0,0,1-.3372-1.5956,3.7249,3.7249,0,0,1,.4339-1.8171,3.8378,3.8378,0,0,1,1.18-1.3127,5.4589,5.4589,0,0,1,1.6616-.7838,6.8742,6.8742,0,0,1,1.884-.2613,8.6829,8.6829,0,0,1,2.1173.2513,5.2225,5.2225,0,0,1,1.7584.7938,3.8744,3.8744,0,0,1,1.2078,1.39,4.28,4.28,0,0,1,.4448,2.01h-2.9382a1.8969,1.8969,0,0,0-.782-1.6228,3.57,3.57,0,0,0-1.9419-.4647,2.7217,2.7217,0,0,0-1.4691.3869,1.2948,1.2948,0,0,0-.62,1.1789,1.1956,1.1956,0,0,0,.1555.6482,1.2631,1.2631,0,0,0,.5424.4258,7.6893,7.6893,0,0,0,1.0243.377q.636.1939,2.0875.56a1.6138,1.6138,0,0,1,.3092.0777.34.34,0,0,0,.1148.019,12.5279,12.5279,0,0,1,1.2765.3869,5.6,5.6,0,0,1,1.2187.6482,3.4674,3.4674,0,0,1,1.0632,1.1789,3.5418,3.5418,0,0,1,.424,1.7882,3.9319,3.9319,0,0,1-1.5061,3.1985,6.5418,6.5418,0,0,1-4.2346,1.2268,8.3863,8.3863,0,0,1-2.2321-.29,5.6135,5.6135,0,0,1-1.8732-.8977,4.3427,4.3427,0,0,1-1.2946-1.5468,4.7251,4.7251,0,0,1-.4746-2.1742Z"/>
        </g>
        <g>
          <g>
            <path class="cls-1" d="M.95,9.1942A8.2515,8.2515,0,0,1,9.1942.952a7.9855,7.9855,0,0,1,2.7049.518L12.9279.8516A8.9194,8.9194,0,0,0,9.1942,0,9.1588,9.1588,0,0,0,3.4263,16.3018V15.0533A8.1979,8.1979,0,0,1,.95,9.1942Z"/>
            <path class="cls-1" d="M13.5526,26.1542a8.2361,8.2361,0,0,1-8.2079-7.8905l-.952-.6934a3.0055,3.0055,0,0,0-.0344.34,9.1937,9.1937,0,0,0,18.3875,0c0-.06-.0145-.1166-.019-.1745l-.9908.7368A8.2239,8.2239,0,0,1,13.5526,26.1542Z"/>
            <path class="cls-1" d="M27.1043,9.1942A9.2051,9.2051,0,0,0,17.9119,0,8.9016,8.9016,0,0,0,14.18.8516l1.0279.6184A7.99,7.99,0,0,1,17.9128.952a8.2214,8.2214,0,0,1,5.7678,14.1V16.3A9.1162,9.1162,0,0,0,27.1043,9.1942Z"/>
          </g>
          <g>
            <polygon class="cls-1" points="13.153 22.593 4.411 16.426 4.411 7.684 13.153 13.389 13.153 22.593"/>
            <polygon class="cls-1" points="22.674 16.426 13.932 22.593 13.932 13.389 22.674 7.684 22.674 16.426"/>
            <polygon class="cls-1" points="22.674 6.914 13.614 12.54 4.555 6.826 13.553 1.49 22.674 6.914"/>
          </g>
        </g>
      </g>
    </g>
  </g>
</svg>
